<?xml version="1.0" encoding="UTF-8"?>
<svg version="1.1" xmlns="http://www.w3.org/2000/svg" width="667" height="128">
<path d="M0 0 C11.22 0 22.44 0 34 0 C38.49867508 6.74801262 38.49867508 6.74801262 40.03515625 10.71484375 C40.53692383 11.99198242 40.53692383 11.99198242 41.04882812 13.29492188 C41.38333984 14.16697266 41.71785156 15.03902344 42.0625 15.9375 C42.74012015 17.67607971 43.41849209 19.41436661 44.09765625 21.15234375 C44.41927734 21.97871338 44.74089844 22.80508301 45.07226562 23.65649414 C46.31712727 26.80108017 47.6473422 29.90032352 49 33 C51.72212372 39.31037772 54.36341724 45.65344309 57 52 C57.66 52 58.32 52 59 52 C63.16066874 43.4914524 63.16066874 43.4914524 66.4375 34.625 C67.93629818 29.79159759 70.12598761 25.29981778 72.3034668 20.74560547 C74.70457067 15.70716111 76.84001336 10.59545852 78.859375 5.390625 C80.07756063 2.83744142 80.7185601 1.65721383 83 0 C85.51727719 -0.26153286 87.78103966 -0.3497922 90.29296875 -0.29296875 C91.35201164 -0.28660149 91.35201164 -0.28660149 92.43244934 -0.28010559 C94.68452303 -0.26333034 96.93569742 -0.22568243 99.1875 -0.1875 C100.71548185 -0.17245157 102.24347776 -0.15876344 103.77148438 -0.14648438 C107.51466872 -0.11343089 111.25718196 -0.06165832 115 0 C115.02312166 12.23880329 115.04091418 24.47760143 115.05181217 36.71642208 C115.05704139 42.39876512 115.06413973 48.08109327 115.07543945 53.76342773 C115.08626696 59.24229136 115.09227654 64.72114062 115.09487724 70.20001411 C115.09673174 72.29529611 115.10035282 74.39057728 115.10573006 76.4858532 C115.11293868 79.40977584 115.11399102 82.33363833 115.11352539 85.25756836 C115.11712067 86.1329425 115.12071594 87.00831665 115.12442017 87.91021729 C115.11405216 93.88594784 115.11405216 93.88594784 114 95 C112.24314326 95.09949077 110.48232667 95.1308026 108.72265625 95.1328125 C107.65208984 95.13410156 106.58152344 95.13539062 105.47851562 95.13671875 C104.35123047 95.13285156 103.22394531 95.12898438 102.0625 95.125 C100.93908203 95.12886719 99.81566406 95.13273437 98.65820312 95.13671875 C97.58634766 95.13542969 96.51449219 95.13414063 95.41015625 95.1328125 C94.42152588 95.13168457 93.43289551 95.13055664 92.41430664 95.12939453 C90 95 90 95 88 94 C87.67 77.17 87.34 60.34 87 43 C80.6779897 55.61160054 80.6779897 55.61160054 75.15625 68.390625 C74.05814629 70.86877798 72.81323913 72.9988913 71.3125 75.25 C69.18853221 78.43923956 68.35683925 81.17779269 67.6015625 84.90234375 C66.44174797 88.94663209 64.13651115 92.40166543 62 96 C56.72 96 51.44 96 46 96 C42.47417775 89.11234724 39.19753783 82.24610937 36.2890625 75.078125 C34.90645056 71.77661527 33.40297916 68.54910609 31.875 65.3125 C29.85853754 61.00179709 28.16270533 56.76431219 26.77294922 52.21801758 C25.98046606 49.94394636 25.01097651 47.88062147 23.9140625 45.73828125 C23.55521973 45.03356689 23.19637695 44.32885254 22.82666016 43.6027832 C22.5538623 43.07386475 22.28106445 42.54494629 22 42 C21.99191315 42.61974197 21.98382629 43.23948395 21.97549438 43.87800598 C21.88955481 50.31805228 21.79005598 56.75778699 21.68261719 63.19750977 C21.64429218 65.60207901 21.60944559 68.00670628 21.578125 70.41137695 C21.53255118 73.86430628 21.4745437 77.3168349 21.4140625 80.76953125 C21.39673569 82.38683891 21.39673569 82.38683891 21.37905884 84.03681946 C21.35918915 85.03763046 21.33931946 86.03844147 21.31884766 87.06958008 C21.30552399 87.95116287 21.29220032 88.83274567 21.2784729 89.74104309 C21 92 21 92 19 95 C16.08669922 95.24869641 13.40579705 95.32634278 10.5 95.25 C9.71496094 95.24484375 8.92992187 95.2396875 8.12109375 95.234375 C2.30924824 95.15462412 2.30924824 95.15462412 0 94 C0 62.98 0 31.96 0 0 Z " fill="#F9F9F9" transform="translate(249,20)"/>
<path d="M0 0 C10.56 0 21.12 0 32 0 C33.32 2.97 34.64 5.94 36 9 C37.15189431 10.88782678 38.30660591 12.7745995 39.51171875 14.62890625 C41.8229598 18.31111969 43.93306068 22.10913369 46.05761719 25.90112305 C47.65792001 28.73602513 49.3185918 31.4778877 51.125 34.1875 C52.60141614 36.40212421 53.81981786 38.47481623 54.9375 40.875 C56.34115375 43.78959313 57.89769798 46.52552663 59.62890625 49.2578125 C60.07435791 49.96309082 60.51980957 50.66836914 60.97875977 51.39501953 C61.31576904 51.92466309 61.65277832 52.45430664 62 53 C62.01030746 52.35076065 62.02061493 51.7015213 62.03123474 51.03260803 C62.13906136 44.30100948 62.25367781 37.5695513 62.37231445 30.83813477 C62.41574006 28.32286504 62.45740929 25.80756437 62.49731445 23.29223633 C62.55483293 19.68561456 62.61857967 16.07914969 62.68359375 12.47265625 C62.70030624 11.34038101 62.71701874 10.20810577 62.73423767 9.04151917 C62.75418289 8.00051559 62.77412811 6.95951202 62.79467773 5.88696289 C62.81022202 4.96540909 62.8257663 4.04385529 62.84178162 3.09437561 C63 1 63 1 64 0 C70.6 0 77.2 0 84 0 C84 31.02 84 62.04 84 94 C79.78493101 96.1075345 74.48139489 95.55374652 69.84350586 95.6796875 C67.83580726 95.74919311 65.83062819 95.88206005 63.82617188 96.015625 C54.3133462 96.24612254 54.3133462 96.24612254 50.54833984 92.67382812 C47.64885424 88.26275883 45.81890495 84.2271544 45 79 C44.01 78.67 43.02 78.34 42 78 C40.640625 75.734375 40.640625 75.734375 39.25 72.75 C34.79366028 63.47331261 30.24924455 54.33051661 24.1640625 46 C22.81677218 43.68519247 22.39329102 41.63413521 22 39 C21.34 39 20.68 39 20 39 C20.00222061 39.68682358 20.00444122 40.37364716 20.00672913 41.08128357 C20.02877895 48.20205162 20.04390533 55.32281004 20.05493164 62.44360352 C20.05997383 65.10441481 20.06680736 67.76522332 20.07543945 70.42602539 C20.08751009 74.24105516 20.09322929 78.05604844 20.09765625 81.87109375 C20.10281754 83.06899033 20.10797882 84.2668869 20.11329651 85.50108337 C20.11340981 87.15268211 20.11340981 87.15268211 20.11352539 88.83764648 C20.115746 89.81249496 20.11796661 90.78734344 20.12025452 91.79173279 C20 94 20 94 19 95 C17.65732587 95.08631874 16.31025678 95.10706473 14.96484375 95.09765625 C14.15595703 95.09443359 13.34707031 95.09121094 12.51367188 95.08789062 C11.66353516 95.07951172 10.81339844 95.07113281 9.9375 95.0625 C9.08349609 95.05798828 8.22949219 95.05347656 7.34960938 95.04882812 C5.23304337 95.03700373 3.11651315 95.01906769 1 95 C-1.62924897 91.09415515 -1.27410714 86.92910646 -1.24291992 82.40771484 C-1.24481827 81.54227554 -1.24671661 80.67683624 -1.24867249 79.78517151 C-1.25237472 76.92700112 -1.24168518 74.06908527 -1.23046875 71.2109375 C-1.22927669 69.22604401 -1.22882384 67.24114994 -1.2290802 65.2562561 C-1.22751637 61.09853581 -1.21923321 56.94090174 -1.20581055 52.78320312 C-1.18879877 47.4452756 -1.1849969 42.10744265 -1.18575573 36.7694912 C-1.18548428 32.67238456 -1.18000742 28.57529873 -1.17275429 24.47819901 C-1.16956553 22.50934634 -1.16759973 20.54049131 -1.16686058 18.5716362 C-1.16470047 15.82554832 -1.15596399 13.07956223 -1.14526367 10.33349609 C-1.14594345 9.1053846 -1.14594345 9.1053846 -1.14663696 7.85246277 C-1.11447922 2.22895844 -1.11447922 2.22895844 0 0 Z " fill="#FAFAFA" transform="translate(469,20)"/>
<path d="M0 0 C22.77 0 45.54 0 69 0 C69 6.27 69 12.54 69 19 C55.8 19.33 42.6 19.66 29 20 C29 25.61 29 31.22 29 37 C32.66416016 37.09087891 32.66416016 37.09087891 36.40234375 37.18359375 C38.75874063 37.24533798 41.1150873 37.30874433 43.47143555 37.37231445 C45.11364303 37.41572297 46.75589739 37.45739358 48.39819336 37.49731445 C50.75388745 37.5548744 53.10934428 37.61860892 55.46484375 37.68359375 C56.20339096 37.70030624 56.94193817 37.71701874 57.7028656 37.73423767 C62.88612829 37.88612829 62.88612829 37.88612829 64 39 C64.09932392 41.31074168 64.12969618 43.62462942 64.125 45.9375 C64.12886719 47.83822266 64.12886719 47.83822266 64.1328125 49.77734375 C64 53 64 53 63 55 C51.78 55.33 40.56 55.66 29 56 C29 61.94 29 67.88 29 74 C33.31384766 74.09087891 33.31384766 74.09087891 37.71484375 74.18359375 C40.48822799 74.24533303 43.26156937 74.30874145 46.03491211 74.37231445 C47.96814185 74.41573041 49.90141159 74.45740042 51.8347168 74.49731445 C54.60738202 74.55485631 57.37984457 74.6185962 60.15234375 74.68359375 C61.02213364 74.70030624 61.89192352 74.71701874 62.78807068 74.73423767 C68.88612829 74.88612829 68.88612829 74.88612829 70 76 C70.12663091 78.82416382 70.18520548 81.61294793 70.1875 84.4375 C70.19974609 85.22705078 70.21199219 86.01660156 70.22460938 86.83007812 C70.22987279 88.88807435 70.12206285 90.94562009 70 93 C68 95 68 95 65.26733398 95.24723816 C64.10532471 95.24581314 62.94331543 95.24438812 61.74609375 95.24291992 C59.77394897 95.24753487 59.77394897 95.24753487 57.76196289 95.25224304 C56.32047349 95.24534509 54.87898582 95.23807811 53.4375 95.23046875 C51.96541382 95.22927697 50.49332687 95.22882378 49.02124023 95.2290802 C45.9343592 95.22751484 42.84759406 95.21922134 39.76074219 95.20581055 C35.7993406 95.18882061 31.83806645 95.18499619 27.87663269 95.18575573 C24.83637266 95.18548409 21.79614062 95.18000389 18.75588989 95.17275429 C17.29501558 95.16956695 15.8341381 95.16760006 14.3732605 95.16686058 C12.33346419 95.16469774 10.29367969 95.15516162 8.25390625 95.14526367 C6.51089233 95.13954597 6.51089233 95.13954597 4.73266602 95.13371277 C2 95 2 95 0 94 C0 62.98 0 31.96 0 0 Z " fill="#F8F8F8" transform="translate(384,20)"/>
<path d="M0 0 C8.71844003 -0.02312611 17.43686956 -0.04091646 26.15533352 -0.05181217 C30.20325742 -0.05704041 34.25116041 -0.06413699 38.29907227 -0.07543945 C42.20235971 -0.08627043 46.10562699 -0.09227728 50.0089283 -0.09487724 C51.50133647 -0.09673111 52.99374348 -0.100351 54.48614311 -0.10573006 C56.56948139 -0.11294331 58.65273531 -0.11399083 60.73608398 -0.11352539 C61.92411118 -0.115746 63.11213837 -0.11796661 64.33616638 -0.12025452 C67 0 67 0 68 1 C68.10002455 3.65653443 68.13877463 6.28129272 68.125 8.9375 C68.12886719 9.67935547 68.13273437 10.42121094 68.13671875 11.18554688 C68.12663501 16.74672998 68.12663501 16.74672998 67 19 C53.8 19 40.6 19 27 19 C27 25.27 27 31.54 27 38 C29.51496094 37.98839844 32.02992188 37.97679687 34.62109375 37.96484375 C37.0469551 37.95705327 39.47281507 37.95097646 41.89868164 37.94506836 C43.58944316 37.9400281 45.28020029 37.93319595 46.97094727 37.92456055 C49.39600707 37.91248143 51.82100944 37.90676877 54.24609375 37.90234375 C55.38672523 37.89460182 55.38672523 37.89460182 56.55039978 37.88670349 C58.3673257 37.88650762 60.18413127 37.93802723 62 38 C63.75559942 39.75559942 63.13221919 42.03582442 63.13671875 44.37109375 C63.13285156 45.07363281 63.12898438 45.77617188 63.125 46.5 C63.13080078 47.55380859 63.13080078 47.55380859 63.13671875 48.62890625 C63.12661378 53.87338622 63.12661378 53.87338622 62 55 C59.40640678 55.08851529 56.83960309 55.11525945 54.24609375 55.09765625 C53.47064713 55.0962413 52.6952005 55.09482635 51.89625549 55.09336853 C49.40996506 55.08775345 46.9237634 55.07519846 44.4375 55.0625 C42.75586067 55.05748694 41.07421994 55.0529237 39.39257812 55.04882812 C35.26165671 55.03862832 31.13092818 55.01905605 27 55 C27 61.6 27 68.2 27 75 C40.53 75 54.06 75 68 75 C68.72431221 80.07018547 69.08132474 83.47875882 68.625 88.375 C68.53476563 89.41398437 68.44453125 90.45296875 68.3515625 91.5234375 C68 94 68 94 67 95 C64.94987154 95.09939626 62.89628608 95.12799553 60.84375 95.12939453 C59.52568359 95.13254669 58.20761719 95.13569885 56.84960938 95.13894653 C55.39973925 95.13715675 53.94986942 95.1351058 52.5 95.1328125 C51.02408838 95.13348557 49.54817687 95.13445563 48.07226562 95.13571167 C44.97524971 95.13718848 41.87826258 95.13503464 38.78125 95.13037109 C34.80291451 95.1246738 30.82464648 95.1279529 26.84631348 95.13394356 C23.79752083 95.13754963 20.74874429 95.13641037 17.69995117 95.13381577 C16.23266594 95.13314662 14.76537926 95.13397447 13.2980957 95.13629532 C11.25081407 95.13882257 9.20352734 95.1342906 7.15625 95.12939453 C5.40538086 95.12820114 5.40538086 95.12820114 3.61914062 95.12698364 C1 95 1 95 0 94 C-0.09525367 91.07805335 -0.12552736 88.17979671 -0.11352539 85.25756836 C-0.11367142 84.3405867 -0.11381744 83.42360504 -0.1139679 82.47883606 C-0.1132684 79.43248164 -0.10547428 76.38618755 -0.09765625 73.33984375 C-0.0957922 71.23377007 -0.09436824 69.12769597 -0.09336853 67.0216217 C-0.08954231 61.46657117 -0.07971114 55.91154659 -0.06866455 50.35650635 C-0.05845267 44.6927526 -0.05387139 39.02899467 -0.04882812 33.36523438 C-0.03808896 22.24347815 -0.0210113 11.12174123 0 0 Z " fill="#FAFAFA" transform="translate(165,20)"/>
<path d="M0 0 C0.83055908 0.07822998 1.66111816 0.15645996 2.5168457 0.23706055 C3.68799927 0.36334839 3.68799927 0.36334839 4.8828125 0.4921875 C5.92912842 0.60216064 5.92912842 0.60216064 6.99658203 0.71435547 C8.875 1.125 8.875 1.125 11.875 3.125 C12.23144531 4.98852539 12.23144531 4.98852539 12.203125 7.22265625 C12.19796875 8.02380859 12.1928125 8.82496094 12.1875 9.65039062 C12.166875 10.48763672 12.14625 11.32488281 12.125 12.1875 C12.11984375 13.02861328 12.1146875 13.86972656 12.109375 14.73632812 C12.02899235 20.97100765 12.02899235 20.97100765 10.875 22.125 C5.49352724 21.76623515 0.48891732 20.83895676 -4.75 19.5625 C-12.15182135 17.80671912 -17.86686278 17.47298832 -25.125 20.125 C-27.17504839 21.3356557 -27.17504839 21.3356557 -28.125 23.125 C-27.97381055 25.15030433 -27.97381055 25.15030433 -27.125 27.125 C-24.58524796 28.64056299 -22.17552684 29.90408223 -19.5 31.125 C-18.09019727 31.78965838 -16.68133447 32.45631424 -15.2734375 33.125 C-14.57992187 33.45137451 -13.88640625 33.77774902 -13.171875 34.11401367 C-11.17314198 35.10122186 -9.25833401 36.17316277 -7.3359375 37.30078125 C-4.14175542 39.26303103 -4.14175542 39.26303103 -0.375 40.3125 C6.128698 42.65434038 12.0836615 47.44043318 16.2421875 52.9296875 C19.61446144 60.15598881 19.17085661 72.36243017 16.6875 79.8125 C11.64636332 89.02561187 3.45698041 93.24457527 -6.16015625 96.328125 C-20.71829482 100.24098438 -40.50838063 99.93330968 -54.125 93.125 C-54.125 86.855 -54.125 80.585 -54.125 74.125 C-49.57591365 72.98772841 -48.47186978 73.52012688 -44.1875 75.0625 C-37.7011409 77.03779798 -31.76947704 77.51458059 -25 77.5 C-24.08742432 77.5012085 -23.17484863 77.50241699 -22.23461914 77.50366211 C-16.38737531 77.4651197 -16.38737531 77.4651197 -11.125 75.125 C-10.04276634 72.21495097 -10.04276634 72.21495097 -10.125 69.125 C-13.9324166 64.5209547 -19.60335333 61.45663575 -25.25 59.75 C-29.46032252 58.46127519 -33.37015636 56.69267919 -37.3125 54.75 C-38.46105469 54.18539062 -39.60960937 53.62078125 -40.79296875 53.0390625 C-45.75231396 50.19020066 -49.96448289 47.06393011 -52.9375 42.0625 C-53.33582031 41.41152344 -53.73414063 40.76054688 -54.14453125 40.08984375 C-57.40138099 33.56316877 -56.98878248 25.3101979 -55.125 18.4375 C-50.451963 10.69778247 -44.41856576 3.6520997 -35.49609375 1.078125 C-23.40845752 -1.08252497 -12.22632872 -1.18044934 0 0 Z " fill="#FAF9FA" transform="translate(624.125,18.875)"/>
<path d="M0 0 C0.83877686 0.07831055 1.67755371 0.15662109 2.54174805 0.23730469 C8.57158926 0.88408926 8.57158926 0.88408926 10.8125 3.125 C11.03955078 5.09619141 11.03955078 5.09619141 11.0078125 7.4765625 C11.00136719 8.32734375 10.99492188 9.178125 10.98828125 10.0546875 C10.96314453 11.38886719 10.96314453 11.38886719 10.9375 12.75 C10.92847656 13.6471875 10.91945313 14.544375 10.91015625 15.46875 C10.8865497 17.68776586 10.8536231 19.90625077 10.8125 22.125 C5.42600181 21.74574385 0.43974055 21.11649011 -4.75 19.5625 C-13.81667148 16.98659615 -19.85290296 17.71140724 -28.1875 22.125 C-28.28410225 24.50521406 -28.28410225 24.50521406 -27.1875 27.125 C-24.62485648 28.72889227 -22.29900419 29.97046293 -19.5625 31.1875 C-18.15271844 31.84306141 -16.74385579 32.50060269 -15.3359375 33.16015625 C-14.64266357 33.48064941 -13.94938965 33.80114258 -13.23510742 34.13134766 C-11.23151514 35.10364056 -9.31227959 36.15944091 -7.38671875 37.27734375 C-4.19710686 39.20825257 -4.19710686 39.20825257 -0.625 40.625 C2.87592612 42.15267685 5.72103863 43.88862369 8.8125 46.125 C9.84375 46.846875 10.875 47.56875 11.9375 48.3125 C16.66887384 52.44622662 18.53136337 57.36417515 19.16015625 63.5390625 C19.362577 71.75910516 19.03773459 78.37675439 13.5 84.8125 C12.1696875 85.9571875 12.1696875 85.9571875 10.8125 87.125 C9.45125 88.3934375 9.45125 88.3934375 8.0625 89.6875 C-3.48828351 99.05777846 -19.0653781 99.06333777 -33.1875 98.125 C-40.4102637 97.32932039 -47.65420985 96.39164507 -54.1875 93.125 C-54.1875 86.855 -54.1875 80.585 -54.1875 74.125 C-49.68942996 73.00048249 -48.98761425 73.40966315 -44.875 75.0625 C-38.24235166 77.24558882 -32.02392775 77.54572026 -25.0625 77.5625 C-24.04244873 77.5720874 -23.02239746 77.5816748 -21.97143555 77.59155273 C-21.00890869 77.58067627 -20.04638184 77.5697998 -19.0546875 77.55859375 C-17.75700439 77.54397095 -17.75700439 77.54397095 -16.43310547 77.52905273 C-13.72882286 77.04247003 -12.85919292 76.26257992 -11.1875 74.125 C-10.16996305 71.69856574 -9.99677915 70.6362942 -10.921875 68.15625 C-13.87621499 63.41471669 -20.21493845 61.32507497 -25.375 59.75 C-29.55853408 58.45369367 -33.45246159 56.68063644 -37.375 54.75 C-38.52355469 54.18539062 -39.67210938 53.62078125 -40.85546875 53.0390625 C-49.59907811 48.01635607 -49.59907811 48.01635607 -51.0625 43.3125 C-51.10375 42.590625 -51.145 41.86875 -51.1875 41.125 C-51.8475 41.125 -52.5075 41.125 -53.1875 41.125 C-55.934746 33.96974348 -57.20942002 27.64369755 -55.1875 20.125 C-53.25767148 15.83201332 -51.15114352 11.79427293 -48.1875 8.125 C-45.95703125 7.2890625 -45.95703125 7.2890625 -44.1875 7.125 C-44.1875 6.465 -44.1875 5.805 -44.1875 5.125 C-31.92894834 -3.63110833 -14.23628781 -1.38162006 0 0 Z " fill="#F9F9F9" transform="translate(83.1875,18.875)"/>
<path d="M0 0 C8.91 0 17.82 0 27 0 C27.02254946 12.23880658 27.04091418 24.47759947 27.05181217 36.71642208 C27.05704139 42.39876512 27.06413973 48.08109327 27.07543945 53.76342773 C27.08626696 59.24229136 27.09227654 64.72114062 27.09487724 70.20001411 C27.09673174 72.29529611 27.10035282 74.39057728 27.10573006 76.4858532 C27.11293868 79.40977584 27.11399102 82.33363833 27.11352539 85.25756836 C27.11712067 86.1329425 27.12071594 87.00831665 27.12442017 87.91021729 C27.11405216 93.88594784 27.11405216 93.88594784 26 95 C24.24314326 95.09949077 22.48232667 95.1308026 20.72265625 95.1328125 C19.65208984 95.13410156 18.58152344 95.13539062 17.47851562 95.13671875 C16.35123047 95.13285156 15.22394531 95.12898438 14.0625 95.125 C12.93908203 95.12886719 11.81566406 95.13273437 10.65820312 95.13671875 C9.58634766 95.13542969 8.51449219 95.13414063 7.41015625 95.1328125 C5.92721069 95.13112061 5.92721069 95.13112061 4.41430664 95.12939453 C2 95 2 95 0 94 C0 62.98 0 31.96 0 0 Z " fill="#F6F6F6" transform="translate(116,20)"/>
<path d="M0 0 C1.53202706 0.25195908 3.05257128 0.57596777 4.5625 0.9375 C5.38878906 1.13214844 6.21507812 1.32679687 7.06640625 1.52734375 C8.02353516 1.76130859 8.02353516 1.76130859 9 2 C8.401875 2.144375 7.80375 2.28875 7.1875 2.4375 C5.43849596 2.8872439 3.71322977 3.42892341 2 4 C2 3.34 2 2.68 2 2 C1.34 2 0.68 2 0 2 C0.11361602 4.79256219 0.2403589 7.58344118 0.375 10.375 C0.4059375 11.1690625 0.436875 11.963125 0.46875 12.78125 C0.51816421 17.36667375 0.51816421 17.36667375 3 21 C1.68 20.67 0.36 20.34 -1 20 C-1.02888514 16.85418577 -1.04675923 13.70840531 -1.0625 10.5625 C-1.07087891 9.66466797 -1.07925781 8.76683594 -1.08789062 7.84179688 C-1.09111328 6.98779297 -1.09433594 6.13378906 -1.09765625 5.25390625 C-1.10551147 4.06776733 -1.10551147 4.06776733 -1.11352539 2.85766602 C-1 1 -1 1 0 0 Z " fill="#E5E4E4" transform="translate(30,92)"/>
<path d="M0 0 C6.66346404 4.90625811 6.66346404 4.90625811 8 9.25 C8 12 8 12 7 14 C6.0106909 12.61133677 5.03396922 11.21370149 4.0625 9.8125 C3.51722656 9.03519531 2.97195313 8.25789063 2.41015625 7.45703125 C0.9543711 4.92049701 0.40386565 2.8781818 0 0 Z " fill="#E3E1E2" transform="translate(491,59)"/>
<path d="M0 0 C3.13552849 2.5654324 4.04223298 5.10508078 5 9 C5.21640288 11.79945377 5.1909522 14.56949468 5.125 17.375 C5.11597656 18.11105469 5.10695313 18.84710938 5.09765625 19.60546875 C5.07430144 21.4037888 5.03843836 23.20193911 5 25 C4.67 25 4.34 25 4 25 C3.92652344 23.39318359 3.92652344 23.39318359 3.8515625 21.75390625 C3.77654706 20.35674361 3.7009987 18.9596095 3.625 17.5625 C3.5940625 16.85544922 3.563125 16.14839844 3.53125 15.41992188 C3.42719371 13.60760812 3.22080108 11.80182012 3 10 C2.34 9.67 1.68 9.34 1 9 C0.5859375 6.93359375 0.5859375 6.93359375 0.375 4.4375 C0.30023437 3.61121094 0.22546875 2.78492187 0.1484375 1.93359375 C0.09945312 1.29550781 0.05046875 0.65742187 0 0 Z " fill="#E1E0E0" transform="translate(637,69)"/>
<path d="M0 0 C0.33 0.66 0.66 1.32 1 2 C1.99 2.33 2.98 2.66 4 3 C4 3.99 4 4.98 4 6 C4.66 6 5.32 6 6 6 C6 6.99 6 7.98 6 9 C7.32 9.66 8.64 10.32 10 11 C9.67 11.99 9.34 12.98 9 14 C4.2 10.67692308 4.2 10.67692308 3.1875 7.25 C3.125625 6.5075 3.06375 5.765 3 5 C2.34 5 1.68 5 1 5 C0.67 3.35 0.34 1.7 0 0 Z " fill="#E5E4E4" transform="translate(29,55)"/>
<path d="M0 0 C0 3 0 3 -1.375 4.4375 C-1.91125 4.953125 -2.4475 5.46875 -3 6 C-3.309375 6.66 -3.61875 7.32 -3.9375 8 C-5.22217969 10.4182206 -6.7449403 11.49662686 -9 13 C-8.4352699 9.09170915 -6.57868029 7.10079777 -3.9375 4.25 C-3.20402344 3.45078125 -2.47054687 2.6515625 -1.71484375 1.828125 C-1.14894531 1.22484375 -0.58304688 0.6215625 0 0 Z " fill="#D1D1D1" transform="translate(579,25)"/>
<path d="M0 0 C3.96 1.98 7.92 3.96 12 6 C9 7 9 7 5 7 C5 6.34 5 5.68 5 5 C4.01 4.67 3.02 4.34 2 4 C2 3.34 2 2.68 2 2 C1.34 2 0.68 2 0 2 C0 1.34 0 0.68 0 0 Z " fill="#E4E4E4" transform="translate(596,46)"/>
<path d="M0 0 C1.63001953 0.01353516 1.63001953 0.01353516 3.29296875 0.02734375 C4.12441406 0.03894531 4.95585938 0.05054687 5.8125 0.0625 C2.12763232 2.51907845 0.16236453 2.13881341 -4.1875 2.0625 C-6.49786915 2.49104995 -6.49786915 2.49104995 -8.1875 3.0625 C-8.5175 2.4025 -8.8475 1.7425 -9.1875 1.0625 C-5.90230525 -0.03256492 -3.45086585 -0.03710608 0 0 Z " fill="#F1F0F0" transform="translate(607.1875,17.9375)"/>
<path d="M0 0 C0.99 0 1.98 0 3 0 C3.66 1.98 4.32 3.96 5 6 C4.34 6.66 3.68 7.32 3 8 C0 2.25 0 2.25 0 0 Z " fill="#EBEAEA" transform="translate(499,73)"/>
<path d="M0 0 C2.97 0.99 5.94 1.98 9 3 C5 5 5 5 2.8125 4.3125 C1 3 1 3 0 0 Z " fill="#E7E7E7" transform="translate(61,50)"/>
<path d="M0 0 C0.99 0 1.98 0 3 0 C2.1875 2.4375 2.1875 2.4375 1 5 C0.01 5.33 -0.98 5.66 -2 6 C-2.33 5.01 -2.66 4.02 -3 3 C-2.34 3 -1.68 3 -1 3 C-0.67 2.01 -0.34 1.02 0 0 Z " fill="#E6E4E6" transform="translate(636,100)"/>
<path d="M0 0 C1.53202706 0.25195908 3.05257128 0.57596777 4.5625 0.9375 C5.38878906 1.13214844 6.21507812 1.32679687 7.06640625 1.52734375 C8.02353516 1.76130859 8.02353516 1.76130859 9 2 C8.401875 2.144375 7.80375 2.28875 7.1875 2.4375 C5.43849596 2.8872439 3.71322977 3.42892341 2 4 C2 3.34 2 2.68 2 2 C1.01 1.67 0.02 1.34 -1 1 C-0.67 0.67 -0.34 0.34 0 0 Z " fill="#EBEBEB" transform="translate(30,92)"/>
<path d="M0 0 C0.99 0.495 0.99 0.495 2 1 C2 1.66 2 2.32 2 3 C2.66 3 3.32 3 4 3 C4 4.32 4 5.64 4 7 C3.01 6.67 2.02 6.34 1 6 C0.67 4.02 0.34 2.04 0 0 Z " fill="#ECE9EA" transform="translate(529,72)"/>
<path d="M0 0 C1.98 1.65 3.96 3.3 6 5 C5.01 5.66 4.02 6.32 3 7 C0 2.25 0 2.25 0 0 Z " fill="#E9E9E9" transform="translate(491,59)"/>
</svg>
