<?xml version="1.0" encoding="UTF-8"?>
<svg version="1.1" xmlns="http://www.w3.org/2000/svg" width="400" height="200">
<path d="M0 0 C0.97195312 -0.03738281 1.94390625 -0.07476562 2.9453125 -0.11328125 C5.5869588 -0.14611939 8.02425904 -0.0897502 10.625 0.375 C12.5390625 2.28515625 12.5390625 2.28515625 13.625 5.375 C14.2681499 6.90347566 14.91428436 8.43069704 15.5625 9.95703125 C16.25443924 11.6987638 16.9418214 13.44231257 17.625 15.1875 C17.96789062 16.05181641 18.31078125 16.91613281 18.6640625 17.80664062 C20.7081577 22.97539279 22.68864298 28.16498939 24.625 33.375 C25.285 33.375 25.945 33.375 26.625 33.375 C28.15744568 29.64066782 29.68730042 25.90528559 31.21484375 22.16894531 C31.73400286 20.90010495 32.2538482 19.63154512 32.77441406 18.36328125 C33.52592874 16.5320041 34.27470775 14.69960505 35.0234375 12.8671875 C35.47380371 11.76745605 35.92416992 10.66772461 36.38818359 9.53466797 C37.57257931 6.508918 38.62703441 3.46665667 39.625 0.375 C42.91664829 0.34604775 46.20826399 0.3282177 49.5 0.3125 C50.43714844 0.30412109 51.37429687 0.29574219 52.33984375 0.28710938 C53.68369141 0.28227539 53.68369141 0.28227539 55.0546875 0.27734375 C56.29581299 0.26948853 56.29581299 0.26948853 57.56201172 0.26147461 C59.625 0.375 59.625 0.375 61.625 1.375 C61.625 20.845 61.625 40.315 61.625 60.375 C57.5771589 61.04964018 54.31378562 61.51214351 50.3125 61.5 C49.01892578 61.50386719 49.01892578 61.50386719 47.69921875 61.5078125 C45.625 61.375 45.625 61.375 44.625 60.375 C44.46519563 57.92891002 44.36570553 55.50768942 44.30859375 53.05859375 C44.28781265 52.32753922 44.26703156 51.59648468 44.24562073 50.84327698 C44.18004976 48.49978344 44.12120568 46.15617461 44.0625 43.8125 C44.01932192 42.22720145 43.97570787 40.64191471 43.93164062 39.05664062 C43.8243608 35.16287963 43.7231151 31.26900228 43.625 27.375 C42.03914625 30.99890238 40.45679067 34.6243225 38.875 38.25 C38.4315625 39.26320312 37.988125 40.27640625 37.53125 41.3203125 C35.0637037 46.98115401 32.70649479 52.64417727 30.59619141 58.44897461 C29.625 60.375 29.625 60.375 26.75 62.0625 C20.66953441 62.67054656 20.66953441 62.67054656 17.625 61.375 C13.30314536 54.66051934 10.69471943 46.74155877 7.875 39.3125 C7.09085065 37.25823172 6.30451544 35.204796 5.515625 33.15234375 C5.17563477 32.25765381 4.83564453 31.36296387 4.48535156 30.44116211 C3.79816085 28.42117443 3.79816085 28.42117443 2.625 27.375 C2.60518066 28.33390137 2.58536133 29.29280273 2.56494141 30.28076172 C2.48895855 33.83311553 2.4002307 37.38505576 2.30761719 40.93701172 C2.26929699 42.47534021 2.23444944 44.01375925 2.203125 45.55224609 C2.15753941 47.76172276 2.0995366 49.97057448 2.0390625 52.1796875 C2.02173569 53.21414505 2.02173569 53.21414505 2.00405884 54.26950073 C1.85274341 59.14725659 1.85274341 59.14725659 -0.375 61.375 C-2.72265625 61.60546875 -2.72265625 61.60546875 -5.4375 61.5625 C-6.33597656 61.55605469 -7.23445312 61.54960938 -8.16015625 61.54296875 C-10.375 61.375 -10.375 61.375 -11.375 60.375 C-11.47405152 58.53927369 -11.50299207 56.69972425 -11.50439453 54.86132812 C-11.50754669 53.68340698 -11.51069885 52.50548584 -11.51394653 51.29187012 C-11.5119223 50.00961548 -11.50989807 48.72736084 -11.5078125 47.40625 C-11.50876923 46.10046997 -11.50972595 44.79468994 -11.51071167 43.44934082 C-11.51218833 40.68187278 -11.51003511 37.91443696 -11.50537109 35.14697266 C-11.49967381 31.59237351 -11.50295298 28.03784986 -11.50894356 24.48325348 C-11.51341747 21.10341286 -11.51028886 17.72359277 -11.5078125 14.34375 C-11.50983673 13.06149536 -11.51186096 11.77924072 -11.51394653 10.45812988 C-11.51079437 9.28020874 -11.50764221 8.1022876 -11.50439453 6.88867188 C-11.50359894 5.84578003 -11.50280334 4.80288818 -11.50198364 3.72839355 C-11.20419345 -1.79056546 -4.29998514 0.06223663 0 0 Z " fill="#A9A7A8" transform="translate(156.375,63.625)"/>
<path d="M0 0 C1.21139648 -0.0937793 1.21139648 -0.0937793 2.44726562 -0.18945312 C4.91247729 -0.25608047 6.83010142 -0.17251816 9.1875 0.5625 C11.55126336 2.88489463 12.78611596 5.58835286 14.1875 8.5625 C15.05152774 10.15217283 15.92011976 11.73937229 16.79296875 13.32421875 C17.65686871 14.96445241 18.5175251 16.60639835 19.375 18.25 C19.81263672 19.07822266 20.25027344 19.90644531 20.70117188 20.75976562 C22.73142117 24.63118756 24.68713188 28.44696509 26.1875 32.5625 C26.8475 32.5625 27.5075 32.5625 28.1875 32.5625 C28.17178955 31.37491089 28.17178955 31.37491089 28.15576172 30.16333008 C28.11412154 26.56725249 28.08814807 22.97122572 28.0625 19.375 C28.04574219 18.12912109 28.02898437 16.88324219 28.01171875 15.59960938 C28.00205078 13.7965332 28.00205078 13.7965332 27.9921875 11.95703125 C27.97647705 10.29957886 27.97647705 10.29957886 27.96044922 8.60864258 C28.19022371 5.52595835 28.8793151 3.34409038 30.1875 0.5625 C31.99992052 0.53562721 33.81245233 0.51616285 35.625 0.5 C36.63433594 0.48839844 37.64367187 0.47679687 38.68359375 0.46484375 C41.1875 0.5625 41.1875 0.5625 42.1875 1.5625 C42.28126053 3.37305025 42.3049411 5.18727201 42.30102539 7.00024414 C42.30094986 8.16137222 42.30087433 9.32250031 42.30079651 10.51881409 C42.29563522 11.782332 42.29047394 13.04584991 42.28515625 14.34765625 C42.2837413 15.63361191 42.28232635 16.91956757 42.28086853 18.24449158 C42.27704418 21.66893443 42.26721462 25.09333509 42.25616455 28.51776123 C42.24594864 32.00988189 42.24137053 35.50200934 42.23632812 38.99414062 C42.22559227 45.85027778 42.20851684 52.70638687 42.1875 59.5625 C35.55687628 62.35875147 29.2071341 63.11139752 22.1875 61.5625 C19.06923075 58.73519602 17.62534587 55.49662345 16.04589844 51.63134766 C14.69488076 48.37522597 13.16733885 45.20480829 11.65576172 42.02075195 C10.85232299 40.31710762 10.06446626 38.60601528 9.29345703 36.88745117 C8.75374268 35.70179565 8.75374268 35.70179565 8.203125 34.4921875 C7.72794434 33.42846924 7.72794434 33.42846924 7.24316406 32.34326172 C6.16814017 30.23696562 6.16814017 30.23696562 3.1875 28.5625 C3.19273682 29.52663818 3.19797363 30.49077637 3.20336914 31.48413086 C3.22142118 35.04922564 3.23293274 38.61431636 3.24243164 42.17944336 C3.2474714 43.72469766 3.2543032 45.26994716 3.26293945 46.81518555 C3.27502076 49.03175029 3.28073173 51.24825218 3.28515625 53.46484375 C3.29031754 54.1596434 3.29547882 54.85444305 3.30079651 55.57029724 C3.30099277 57.2347933 3.24939129 58.89915499 3.1875 60.5625 C2.1875 61.5625 2.1875 61.5625 -0.5 61.6953125 C-1.593125 61.69273438 -2.68625 61.69015625 -3.8125 61.6875 C-4.905625 61.69007812 -5.99875 61.69265625 -7.125 61.6953125 C-9.8125 61.5625 -9.8125 61.5625 -10.8125 60.5625 C-10.90631302 58.72131971 -10.92993954 56.87652359 -10.92602539 55.03295898 C-10.92594986 53.85181015 -10.92587433 52.67066132 -10.92579651 51.45372009 C-10.92063522 50.1683284 -10.91547394 48.88293671 -10.91015625 47.55859375 C-10.9087413 46.25044205 -10.90732635 44.94229034 -10.90586853 43.59449768 C-10.9020441 40.11087141 -10.89221446 36.62728661 -10.88116455 33.14367676 C-10.87094882 29.59123292 -10.86637056 26.03878241 -10.86132812 22.48632812 C-10.85059212 15.51170168 -10.8335166 8.53710283 -10.8125 1.5625 C-7.43359461 -0.12695269 -3.71166352 0.12557162 0 0 Z " fill="#A8A6A7" transform="translate(296.8125,63.4375)"/>
<path d="M0 0 C1.36560059 0.00303635 1.36560059 0.00303635 2.75878906 0.00613403 C3.68723633 0.00517731 4.61568359 0.00422058 5.57226562 0.00323486 C7.53938871 0.00255298 9.50651403 0.00440781 11.47363281 0.00857544 C14.49581932 0.01392358 17.51785721 0.00863071 20.54003906 0.00222778 C22.44628939 0.00288856 24.35253963 0.00416972 26.25878906 0.00613403 C27.16918945 0.0041098 28.07958984 0.00208557 29.01757812 0 C35.39383938 0.02399685 35.39383938 0.02399685 36.50878906 1.13894653 C36.71191406 3.35379028 36.71191406 3.35379028 36.75878906 6.07644653 C36.78457031 6.97234497 36.81035156 7.86824341 36.83691406 8.79129028 C36.72863281 9.56601685 36.62035156 10.34074341 36.50878906 11.13894653 C33.41924109 13.19864518 32.85454584 13.38035146 29.38378906 13.29910278 C28.20042969 13.28266724 28.20042969 13.28266724 26.99316406 13.26589966 C26.17332031 13.24463013 25.35347656 13.2233606 24.50878906 13.20144653 C22.88387914 13.16695552 21.25886922 13.1368287 19.63378906 13.11160278 C18.55484375 13.08465332 18.55484375 13.08465332 17.45410156 13.05715942 C15.29006062 13.05846813 15.29006062 13.05846813 12.50878906 14.13894653 C11.46664215 18.75402427 11.46664215 18.75402427 12.50878906 23.13894653 C18.77878906 23.46894653 25.04878906 23.79894653 31.50878906 24.13894653 C33.50878906 28.13894653 33.50878906 28.13894653 32.50878906 35.13894653 C25.24878906 35.46894653 17.98878906 35.79894653 10.50878906 36.13894653 C10.83878906 39.43894653 11.16878906 42.73894653 11.50878906 46.13894653 C14.67322501 46.93005552 17.01429512 47.2901322 20.20410156 47.38504028 C21.08453125 47.41791138 21.96496094 47.45078247 22.87207031 47.48464966 C24.72089501 47.54610281 26.5698637 47.60336032 28.41894531 47.65652466 C29.29679687 47.69068481 30.17464844 47.72484497 31.07910156 47.76004028 C31.88105957 47.78509644 32.68301758 47.81015259 33.50927734 47.83596802 C35.50878906 48.13894653 35.50878906 48.13894653 37.50878906 50.13894653 C37.71025308 53.83245353 37.68232096 56.61835085 36.50878906 60.13894653 C31.77403307 61.07337069 27.18122863 61.28518264 22.37207031 61.27175903 C21.23018501 61.27319412 21.23018501 61.27319412 20.06523132 61.2746582 C18.46593136 61.2753353 16.86662858 61.27351398 15.26733398 61.26931763 C12.8184598 61.26394032 10.36976715 61.26928994 7.92089844 61.27566528 C6.36295533 61.27500485 4.80501233 61.27372442 3.24707031 61.27175903 C2.15015617 61.27479538 2.15015617 61.27479538 1.03108215 61.27789307 C-2.08259202 61.26348356 -4.51400214 61.13134947 -7.49121094 60.13894653 C-7.51433915 52.46358026 -7.53212847 44.78821758 -7.54302311 37.11282444 C-7.54825089 33.54917232 -7.55534663 29.98554396 -7.56665039 26.42190552 C-7.57955269 22.32888556 -7.58444 18.23589074 -7.58886719 14.14285278 C-7.59402847 12.85746109 -7.59918976 11.5720694 -7.60450745 10.24772644 C-7.60458298 9.06657761 -7.60465851 7.88542877 -7.60473633 6.66848755 C-7.60695694 5.6225795 -7.60917755 4.57667145 -7.61146545 3.49906921 C-7.36482457 -1.34152014 -4.09124578 0.01539727 0 0 Z " fill="#A3A1A2" transform="translate(239.4912109375,63.861053466796875)"/>
<path d="M0 0 C1.36560059 0.00303635 1.36560059 0.00303635 2.75878906 0.00613403 C3.68723633 0.00517731 4.61568359 0.00422058 5.57226562 0.00323486 C7.53938871 0.00255298 9.50651403 0.00440781 11.47363281 0.00857544 C14.49581932 0.01392358 17.51785721 0.00863071 20.54003906 0.00222778 C22.44628939 0.00288856 24.35253963 0.00416972 26.25878906 0.00613403 C27.16918945 0.0041098 28.07958984 0.00208557 29.01757812 0 C35.39383938 0.02399685 35.39383938 0.02399685 36.50878906 1.13894653 C36.67675781 3.13504028 36.67675781 3.13504028 36.69628906 5.57644653 C36.71046875 6.37953247 36.72464844 7.18261841 36.73925781 8.01004028 C36.50878906 10.13894653 36.50878906 10.13894653 34.50878906 12.13894653 C32.07861328 12.45779419 32.07861328 12.45779419 29.06347656 12.55300903 C27.98710938 12.59168091 26.91074219 12.63035278 25.80175781 12.67019653 C24.10986328 12.71660278 24.10986328 12.71660278 22.38378906 12.76394653 C21.248125 12.80261841 20.11246094 12.84129028 18.94238281 12.88113403 C16.1313495 12.97562255 13.32032674 13.06118194 10.50878906 13.13894653 C10.50878906 16.43894653 10.50878906 19.73894653 10.50878906 23.13894653 C18.24254576 23.94384765 18.24254576 23.94384765 26.00878906 24.13894653 C29.50878906 24.13894653 29.50878906 24.13894653 32.50878906 25.13894653 C32.53568122 26.61801545 32.55513528 28.09722136 32.57128906 29.57644653 C32.58289063 30.40015747 32.59449219 31.22386841 32.60644531 32.07254028 C32.50878906 34.13894653 32.50878906 34.13894653 31.50878906 35.13894653 C29.94930364 35.29580902 28.38336239 35.38971292 26.81738281 35.45535278 C25.40102539 35.51819458 25.40102539 35.51819458 23.95605469 35.58230591 C22.96283203 35.62162231 21.96960938 35.66093872 20.94628906 35.70144653 C19.94919922 35.74463013 18.95210937 35.78781372 17.92480469 35.83230591 C15.45297796 35.93874821 12.98090247 36.03938413 10.50878906 36.13894653 C10.50878906 39.76894653 10.50878906 43.39894653 10.50878906 47.13894653 C11.68235962 47.17653076 11.68235962 47.17653076 12.87963867 47.21487427 C16.40203855 47.33044441 19.92414467 47.45334602 23.44628906 47.57644653 C24.67798828 47.61576294 25.9096875 47.65507935 27.17871094 47.69558716 C28.93344727 47.75842896 28.93344727 47.75842896 30.72363281 47.82254028 C32.34966431 47.87752686 32.34966431 47.87752686 34.00854492 47.93362427 C36.50878906 48.13894653 36.50878906 48.13894653 37.50878906 49.13894653 C37.58105408 50.99182155 37.59260126 52.84728531 37.57128906 54.70144653 C37.56226563 55.7133606 37.55324219 56.72527466 37.54394531 57.76785278 C37.53234375 58.55031372 37.52074219 59.33277466 37.50878906 60.13894653 C27.75317503 60.95312595 18.04754985 61.24697058 8.25878906 61.26394653 C7.16381104 61.26845825 6.06883301 61.27296997 4.94067383 61.27761841 C3.90612061 61.27568481 2.87156738 61.27375122 1.80566406 61.27175903 C0.88108398 61.2706311 -0.04349609 61.26950317 -0.99609375 61.26834106 C-3.31527167 61.14807058 -5.2585485 60.73452271 -7.49121094 60.13894653 C-7.51433915 52.46358026 -7.53212847 44.78821758 -7.54302311 37.11282444 C-7.54825089 33.54917232 -7.55534663 29.98554396 -7.56665039 26.42190552 C-7.57955269 22.32888556 -7.58444 18.23589074 -7.58886719 14.14285278 C-7.59402847 12.85746109 -7.59918976 11.5720694 -7.60450745 10.24772644 C-7.60458298 9.06657761 -7.60465851 7.88542877 -7.60473633 6.66848755 C-7.60695694 5.6225795 -7.60917755 4.57667145 -7.61146545 3.49906921 C-7.36482457 -1.34152014 -4.09124578 0.01539727 0 0 Z " fill="#A9A7A8" transform="translate(98.4912109375,63.861053466796875)"/>
<path d="M0 0 C1.13695313 0.11214844 1.13695313 0.11214844 2.296875 0.2265625 C4.4921875 0.484375 4.4921875 0.484375 8.125 1.25 C10.19858419 4.36037628 10.41987123 5.24561252 10.4375 8.8125 C10.45425781 9.59753906 10.47101562 10.38257812 10.48828125 11.19140625 C10.36839844 11.87074219 10.24851563 12.55007812 10.125 13.25 C9.135 13.91 8.145 14.57 7.125 15.25 C4.7421875 14.75390625 4.7421875 14.75390625 2 13.8125 C-3.45721933 12.15571437 -7.29443716 12.243669 -12.875 13.25 C-13.205 14.9 -13.535 16.55 -13.875 18.25 C-12.75222656 18.81847656 -11.62945313 19.38695313 -10.47265625 19.97265625 C11.54733828 31.27145242 11.54733828 31.27145242 14.125 38.25 C14.78860439 43.79032503 14.88073895 48.68254144 12.4375 53.75 C6.41207938 60.26396824 0.02441478 63.26003845 -8.8828125 63.6484375 C-10.58854156 63.65627393 -12.29441296 63.64836421 -14 63.625 C-14.85464844 63.63660156 -15.70929687 63.64820312 -16.58984375 63.66015625 C-22.07144797 63.6348954 -26.07121927 62.9640724 -30.875 60.25 C-32.0421568 56.74852959 -32.00857453 53.92329964 -31.875 50.25 C-31.545 49.59 -31.215 48.93 -30.875 48.25 C-26.96955075 48.08727295 -23.70753409 48.18991121 -19.9375 49.25 C-14.63867812 50.70074541 -9.16776512 51.01425504 -3.875 49.25 C-3.81521416 46.35494339 -3.81521416 46.35494339 -4.875 43.25 C-7.30360901 41.75547138 -9.31924491 40.75906383 -11.9375 39.75 C-13.31282524 39.16570195 -14.68526853 38.57457202 -16.0546875 37.9765625 C-16.7156543 37.68813477 -17.37662109 37.39970703 -18.05761719 37.10253906 C-23.68265998 34.46381668 -28.46061453 30.43986591 -31.875 25.25 C-32.79233855 22.35218221 -33.0102571 19.71847382 -33 16.6875 C-33.00257812 15.92308594 -33.00515625 15.15867187 -33.0078125 14.37109375 C-32.875 12.25 -32.875 12.25 -31.875 9.25 C-30.54166667 8.58333333 -29.20833333 7.91666667 -27.875 7.25 C-27.09125 6.425 -26.3075 5.6 -25.5 4.75 C-18.75424622 -1.67452741 -8.68713996 -1.06684175 0 0 Z " fill="#A8A7A8" transform="translate(36.875,62.75)"/>
<path d="M0 0 C0.71639648 -0.00547852 1.43279297 -0.01095703 2.17089844 -0.01660156 C6.90049608 0.04663418 10.9180161 0.69125778 15.375 2.3125 C16.63737731 4.83725462 16.47356404 6.62450466 16.4375 9.4375 C16.42847656 10.34757812 16.41945313 11.25765625 16.41015625 12.1953125 C16.39855469 12.89398438 16.38695312 13.59265625 16.375 14.3125 C12.45980645 14.39580199 8.75824332 14.26954199 4.875 13.75 C0.80312078 13.24712641 -2.60430968 13.54258058 -6.625 14.3125 C-6.625 15.9625 -6.625 17.6125 -6.625 19.3125 C-5.47902344 19.83199219 -4.33304687 20.35148437 -3.15234375 20.88671875 C-1.62221985 21.59076349 -0.09228178 22.2952122 1.4375 23 C2.18966797 23.33966797 2.94183594 23.67933594 3.71679688 24.02929688 C10.90505983 27.35892517 17.43554137 30.65079224 20.71484375 38.203125 C22.27865817 43.19992846 21.89201294 47.00872823 19.9375 51.9375 C16.06195228 57.96459734 9.15645897 61.58732228 2.375 63.3125 C-0.94232428 63.58918481 -4.23538394 63.59200879 -7.5625 63.5625 C-8.86477539 63.57410156 -8.86477539 63.57410156 -10.19335938 63.5859375 C-15.35462951 63.57033275 -19.80521221 63.23784798 -24.625 61.3125 C-25.64436725 58.25439824 -25.62686825 56.81448793 -25.25 53.6875 C-25.15976562 52.89085937 -25.06953125 52.09421875 -24.9765625 51.2734375 C-24.625 49.3125 -24.625 49.3125 -23.625 48.3125 C-21.7382943 48.54833821 -19.85201599 48.78840129 -17.96875 49.05029297 C-14.0236453 49.49165156 -10.0896851 49.41697142 -6.125 49.375 C-5.30257813 49.37048828 -4.48015625 49.36597656 -3.6328125 49.36132812 C-1.63017604 49.34968489 0.37242227 49.33175556 2.375 49.3125 C2.87741322 46.9829053 2.87741322 46.9829053 2.375 44.3125 C-1.55820622 41.03183484 -5.8053461 39.34971804 -10.5625 37.5625 C-17.4682292 34.80782994 -22.26421249 31.03407502 -25.625 24.3125 C-26.23091318 17.93875942 -25.85378778 12.87937549 -22.625 7.3125 C-16.46307511 0.78810894 -8.50674011 0.04768763 0 0 Z " fill="#A8A7A7" transform="translate(373.625,62.6875)"/>
<path d="M0 0 C1.8871875 -0.02126953 1.8871875 -0.02126953 3.8125 -0.04296875 C7 0.1875 7 0.1875 9 2.1875 C9.24050903 4.59194946 9.24050903 4.59194946 9.22705078 7.64697266 C9.22689972 8.78800446 9.22674866 9.92903625 9.22659302 11.10464478 C9.21627045 12.34112762 9.20594788 13.57761047 9.1953125 14.8515625 C9.1924826 16.11390717 9.18965271 17.37625183 9.18673706 18.67684937 C9.17742131 22.03396944 9.15944835 25.39081912 9.1373291 28.74786377 C9.1168755 32.17303122 9.1077364 35.59822659 9.09765625 39.0234375 C9.07556458 45.74486671 9.04206377 52.46616773 9 59.1875 C5.60241921 61.01557326 3.3208426 61.43311805 -0.5625 61.375 C-1.51253906 61.36855469 -2.46257812 61.36210938 -3.44140625 61.35546875 C-6 61.1875 -6 61.1875 -9 60.1875 C-9 40.7175 -9 21.2475 -9 1.1875 C-6.02958551 -0.29770725 -3.30235553 0.0169178 0 0 Z " fill="#A9A7A8" transform="translate(68,63.8125)"/>
<path d="M0 0 C0.99 0 1.98 0 3 0 C3 0.66 3 1.32 3 2 C2.34 2 1.68 2 1 2 C1 20.81 1 39.62 1 59 C3.64 58.67 6.28 58.34 9 58 C9.33 45.13 9.66 32.26 10 19 C11.32 19.33 12.64 19.66 14 20 C15.18628857 22.46663071 16.08739552 24.73163684 16.9375 27.3125 C17.45259172 28.78059316 17.9695366 30.24803736 18.48828125 31.71484375 C18.74174316 32.44300293 18.99520508 33.17116211 19.25634766 33.92138672 C20.6280028 37.75535647 22.2467859 41.48314676 23.8359375 45.23046875 C25.35383676 48.84184652 26.78249097 52.48615508 28.203125 56.13671875 C28.85385421 57.97788606 28.85385421 57.97788606 30 59 C31.34747084 59.23075082 32.70377565 59.41153063 34.0625 59.5625 C35.361875 59.706875 36.66125 59.85125 38 60 C38.11859375 59.47535156 38.2371875 58.95070312 38.359375 58.41015625 C40.65127955 49.78756413 44.07794722 41.45411159 47.88671875 33.40234375 C49.01586895 30.96575648 50.02358893 28.50121739 51 26 C51.99 26.33 52.98 26.66 54 27 C53.57702637 27.96655518 53.57702637 27.96655518 53.14550781 28.95263672 C51.8454008 31.9260592 50.54768913 34.90052154 49.25 37.875 C48.8065625 38.88820312 48.363125 39.90140625 47.90625 40.9453125 C45.4387037 46.60615401 43.08149479 52.26917727 40.97119141 58.07397461 C40 60 40 60 37.125 61.6875 C31.04453441 62.29554656 31.04453441 62.29554656 28 61 C23.67814536 54.28551934 21.06971943 46.36655877 18.25 38.9375 C17.46585065 36.88323172 16.67951544 34.829796 15.890625 32.77734375 C15.55063477 31.88265381 15.21064453 30.98796387 14.86035156 30.06616211 C14.17316085 28.04617443 14.17316085 28.04617443 13 27 C12.98018066 27.95890137 12.96036133 28.91780273 12.93994141 29.90576172 C12.86395855 33.45811553 12.7752307 37.01005576 12.68261719 40.56201172 C12.64429699 42.10034021 12.60944944 43.63875925 12.578125 45.17724609 C12.53253941 47.38672276 12.4745366 49.59557448 12.4140625 51.8046875 C12.39673569 52.83914505 12.39673569 52.83914505 12.37905884 53.89450073 C12.22774341 58.77225659 12.22774341 58.77225659 10 61 C7.65234375 61.23046875 7.65234375 61.23046875 4.9375 61.1875 C4.03902344 61.18105469 3.14054688 61.17460938 2.21484375 61.16796875 C0 61 0 61 -1 60 C-1.09905152 58.16427369 -1.12799207 56.32472425 -1.12939453 54.48632812 C-1.13254669 53.30840698 -1.13569885 52.13048584 -1.13894653 50.91687012 C-1.1369223 49.63461548 -1.13489807 48.35236084 -1.1328125 47.03125 C-1.13376923 45.72546997 -1.13472595 44.41968994 -1.13571167 43.07434082 C-1.13718833 40.30687278 -1.13503511 37.53943696 -1.13037109 34.77197266 C-1.12467381 31.21737351 -1.12795298 27.66284986 -1.13394356 24.10825348 C-1.13841747 20.72841286 -1.13528886 17.34859277 -1.1328125 13.96875 C-1.13483673 12.68649536 -1.13686096 11.40424072 -1.13894653 10.08312988 C-1.13579437 8.90520874 -1.13264221 7.7272876 -1.12939453 6.51367188 C-1.12859894 5.47078003 -1.12780334 4.42788818 -1.12698364 3.35339355 C-1 1 -1 1 0 0 Z " fill="#8B8387" transform="translate(146,64)"/>
<path d="M0 0 C1.8871875 -0.02126953 1.8871875 -0.02126953 3.8125 -0.04296875 C7 0.1875 7 0.1875 9 2.1875 C9.24050903 4.59194946 9.24050903 4.59194946 9.22705078 7.64697266 C9.22689972 8.78800446 9.22674866 9.92903625 9.22659302 11.10464478 C9.21627045 12.34112762 9.20594788 13.57761047 9.1953125 14.8515625 C9.1924826 16.11390717 9.18965271 17.37625183 9.18673706 18.67684937 C9.17742131 22.03396944 9.15944835 25.39081912 9.1373291 28.74786377 C9.1168755 32.17303122 9.1077364 35.59822659 9.09765625 39.0234375 C9.07556458 45.74486671 9.04206377 52.46616773 9 59.1875 C5.60241921 61.01557326 3.3208426 61.43311805 -0.5625 61.375 C-1.51253906 61.36855469 -2.46257812 61.36210938 -3.44140625 61.35546875 C-6 61.1875 -6 61.1875 -9 60.1875 C-9 40.7175 -9 21.2475 -9 1.1875 C-6.02958551 -0.29770725 -3.30235553 0.0169178 0 0 Z M-7 2.1875 C-7.02255606 9.47171977 -7.04091801 16.75592059 -7.05181217 24.04016781 C-7.05703975 27.42221813 -7.06413511 30.8042434 -7.07543945 34.1862793 C-7.08834267 38.07079777 -7.09322924 41.95530597 -7.09765625 45.83984375 C-7.10281754 47.05961411 -7.10797882 48.27938446 -7.11329651 49.53611755 C-7.11337204 50.65720413 -7.11344757 51.77829071 -7.11352539 52.93334961 C-7.115746 53.92596298 -7.11796661 54.91857635 -7.12025452 55.94126892 C-7.25249942 58.15776525 -7.25249942 58.15776525 -6 59.1875 C-4.00200428 59.28623816 -2.00042842 59.31721799 0 59.3125 C1.093125 59.31507812 2.18625 59.31765625 3.3125 59.3203125 C5.91830354 59.49297755 5.91830354 59.49297755 7 58.1875 C7.09365006 56.4382128 7.11744438 54.68513746 7.11352539 52.93334961 C7.11344986 51.81226303 7.11337433 50.69117645 7.11329651 49.53611755 C7.10813522 48.3163472 7.10297394 47.09657684 7.09765625 45.83984375 C7.09553383 43.9774984 7.09553383 43.9774984 7.09336853 42.07752991 C7.08870591 38.77144509 7.07971497 35.46542854 7.06866455 32.15936279 C7.05844827 28.7878885 7.05387045 25.41640717 7.04882812 22.04492188 C7.03777395 15.42575982 7.0204966 8.80663929 7 2.1875 C2.38 2.1875 -2.24 2.1875 -7 2.1875 Z " fill="#868283" transform="translate(68,63.8125)"/>
<path d="M0 0 C1.51400391 0.01740234 1.51400391 0.01740234 3.05859375 0.03515625 C4.07050781 0.04417969 5.08242187 0.05320313 6.125 0.0625 C7.29869141 0.07990234 7.29869141 0.07990234 8.49609375 0.09765625 C7.83609375 0.75765625 7.17609375 1.41765625 6.49609375 2.09765625 C3.85609375 2.09765625 1.21609375 2.09765625 -1.50390625 2.09765625 C-1.50390625 20.90765625 -1.50390625 39.71765625 -1.50390625 59.09765625 C12.02609375 59.09765625 25.55609375 59.09765625 39.49609375 59.09765625 C39.49609375 56.12765625 39.49609375 53.15765625 39.49609375 50.09765625 C34.87609375 50.09765625 30.25609375 50.09765625 25.49609375 50.09765625 C27.49609375 48.09765625 27.49609375 48.09765625 30.5 47.8671875 C31.67433594 47.88136719 32.84867188 47.89554688 34.05859375 47.91015625 C35.82396484 47.91982422 35.82396484 47.91982422 37.625 47.9296875 C40.49609375 48.09765625 40.49609375 48.09765625 41.49609375 49.09765625 C41.56835877 50.95053127 41.57990595 52.80599503 41.55859375 54.66015625 C41.54957031 55.67207031 41.54054687 56.68398437 41.53125 57.7265625 C41.51964844 58.50902344 41.50804687 59.29148438 41.49609375 60.09765625 C31.74047972 60.91183566 22.03485454 61.20568029 12.24609375 61.22265625 C11.15111572 61.22716797 10.0561377 61.23167969 8.92797852 61.23632812 C7.89342529 61.23439453 6.85887207 61.23246094 5.79296875 61.23046875 C4.86838867 61.22934082 3.94380859 61.22821289 2.99121094 61.22705078 C0.67203301 61.1067803 -1.27124381 60.69323242 -3.50390625 60.09765625 C-3.52703446 52.42228998 -3.54482378 44.74692729 -3.55571842 37.07153416 C-3.5609462 33.50788203 -3.56804194 29.94425368 -3.5793457 26.38061523 C-3.59224801 22.28759528 -3.59713531 18.19460045 -3.6015625 14.1015625 C-3.60672379 12.81617081 -3.61188507 11.53077911 -3.61720276 10.20643616 C-3.61727829 9.02528732 -3.61735382 7.84413849 -3.61743164 6.62719727 C-3.61965225 5.58128922 -3.62187286 4.53538116 -3.62416077 3.45777893 C-3.45739125 0.18474991 -3.28571758 0.12814811 0 0 Z " fill="#918E90" transform="translate(94.50390625,63.90234375)"/>
<path d="M0 0 C0.80566406 0.00322266 1.61132812 0.00644531 2.44140625 0.00976562 C3.70404297 0.02233398 3.70404297 0.02233398 4.9921875 0.03515625 C5.84167969 0.03966797 6.69117188 0.04417969 7.56640625 0.04882812 C9.66669659 0.06062751 11.7669508 0.07856319 13.8671875 0.09765625 C13.8671875 1.08765625 13.8671875 2.07765625 13.8671875 3.09765625 C7.9271875 2.76765625 1.9871875 2.43765625 -4.1328125 2.09765625 C-4.1328125 20.90765625 -4.1328125 39.71765625 -4.1328125 59.09765625 C-1.1628125 59.09765625 1.8071875 59.09765625 4.8671875 59.09765625 C4.86195068 58.29021973 4.85671387 57.4827832 4.85131836 56.65087891 C4.83058821 53.00814587 4.81754001 49.36542523 4.8046875 45.72265625 C4.79630859 44.45164063 4.78792969 43.180625 4.77929688 41.87109375 C4.77607422 40.659375 4.77285156 39.44765625 4.76953125 38.19921875 C4.76429443 37.07854004 4.75905762 35.95786133 4.75366211 34.80322266 C4.8671875 32.09765625 4.8671875 32.09765625 5.8671875 30.09765625 C6.5271875 30.42765625 7.1871875 30.75765625 7.8671875 31.09765625 C7.89184496 35.20938185 7.91002709 39.32107903 7.92211914 43.43286133 C7.9271583 44.83260853 7.93398966 46.23235045 7.94262695 47.63208008 C7.9547107 49.64011402 7.95988557 51.64818582 7.96484375 53.65625 C7.97008057 54.86595459 7.97531738 56.07565918 7.98071289 57.32202148 C7.8671875 60.09765625 7.8671875 60.09765625 6.8671875 61.09765625 C4.86919178 61.19639441 2.86761592 61.22737424 0.8671875 61.22265625 C-0.2259375 61.22523437 -1.3190625 61.2278125 -2.4453125 61.23046875 C-5.1328125 61.09765625 -5.1328125 61.09765625 -6.1328125 60.09765625 C-6.22662552 58.25647596 -6.25025204 56.41167984 -6.24633789 54.56811523 C-6.24626236 53.3869664 -6.24618683 52.20581757 -6.24610901 50.98887634 C-6.24094772 49.70348465 -6.23578644 48.41809296 -6.23046875 47.09375 C-6.2290538 45.7855983 -6.22763885 44.47744659 -6.22618103 43.12965393 C-6.2223566 39.64602766 -6.21252696 36.16244286 -6.20147705 32.67883301 C-6.19126132 29.12638917 -6.18668306 25.57393866 -6.18164062 22.02148438 C-6.17090462 15.04685793 -6.1538291 8.07225908 -6.1328125 1.09765625 C-3.8362755 -0.05061225 -2.54968083 -0.0179555 0 0 Z " fill="#8A7E84" transform="translate(292.1328125,63.90234375)"/>
<path d="M0 0 C0.66 0 1.32 0 2 0 C2 19.47 2 38.94 2 59 C-2.0478411 59.67464018 -5.31121438 60.13714351 -9.3125 60.125 C-10.60607422 60.12886719 -10.60607422 60.12886719 -11.92578125 60.1328125 C-14 60 -14 60 -15 59 C-15.08851529 56.40640678 -15.11525945 53.83960309 -15.09765625 51.24609375 C-15.0962413 50.47064713 -15.09482635 49.6952005 -15.09336853 48.89625549 C-15.08775345 46.40996506 -15.07519846 43.9237634 -15.0625 41.4375 C-15.05748694 39.75586067 -15.0529237 38.07421994 -15.04882812 36.39257812 C-15.03777913 32.26168434 -15.02050445 28.13085724 -15 24 C-15.99 23.67 -16.98 23.34 -18 23 C-17.34 21.35 -16.68 19.7 -16 18 C-15.01 18.33 -14.02 18.66 -13 19 C-13 31.87 -13 44.74 -13 58 C-8.71 58 -4.42 58 0 58 C0 38.86 0 19.72 0 0 Z " fill="#868386" transform="translate(216,65)"/>
<path d="M0 0 C1.1446875 -0.04898438 2.289375 -0.09796875 3.46875 -0.1484375 C6.5 0.375 6.5 0.375 8.15625 2.28515625 C10.01476891 6.55866921 11.80119258 10.84787729 13.5 15.1875 C13.84289062 16.05181641 14.18578125 16.91613281 14.5390625 17.80664062 C16.5831577 22.97539279 18.56364298 28.16498939 20.5 33.375 C21.16 33.375 21.82 33.375 22.5 33.375 C24.03015493 29.62142224 25.56009591 25.86775736 27.08984375 22.11401367 C27.60964254 20.83859941 28.12949849 19.56320845 28.64941406 18.2878418 C29.39924114 16.44846715 30.1488416 14.60900012 30.8984375 12.76953125 C31.34880371 11.66456299 31.79916992 10.55959473 32.26318359 9.42114258 C33.35079647 6.74247186 34.42930782 4.0604708 35.5 1.375 C36.49 1.705 37.48 2.035 38.5 2.375 C37.25155549 5.3548208 36.00095018 8.33373033 34.75 11.3125 C34.22792969 12.55870117 34.22792969 12.55870117 33.6953125 13.83007812 C31.65468108 18.68602511 29.5660277 23.51461809 27.39648438 28.31445312 C25.958841 31.6188404 24.73129568 34.98893689 23.5 38.375 C22.18 38.375 20.86 38.375 19.5 38.375 C17.4833541 34.04484155 15.55704771 29.74947234 14.125 25.1875 C12.39220781 19.72775254 10.02557207 14.54581585 7.70703125 9.31640625 C6.5 6.375 6.5 6.375 6.5 4.375 C1.13904667 3.24637825 -4.05306686 3.27811779 -9.5 3.375 C-9.5 2.715 -9.5 2.055 -9.5 1.375 C-6.18670139 0.27056713 -3.48785734 0.10212195 0 0 Z " fill="#8D828B" transform="translate(160.5,63.625)"/>
<path d="M0 0 C6.25719126 1.60440802 12.44773358 4.7058748 16.46484375 9.890625 C19.10952695 14.67176047 19.68560946 18.60082547 19 24 C16.40737261 30.53792995 12.16987668 33.77529099 6 37 C0.67816202 39.29859766 -4.24229492 39.3005118 -9.9375 39.25 C-11.23977539 39.26160156 -11.23977539 39.26160156 -12.56835938 39.2734375 C-17.72962951 39.25783275 -22.18021221 38.92534798 -27 37 C-28.03159626 33.90521121 -27.97482862 32.47368607 -27.5625 29.3125 C-27.46066406 28.50425781 -27.35882813 27.69601563 -27.25390625 26.86328125 C-27.17011719 26.24839844 -27.08632813 25.63351563 -27 25 C-26.01 25 -25.02 25 -24 25 C-24 28.3 -24 31.6 -24 35 C-14.22282164 36.94279958 -0.60782558 38.36717319 8.3359375 33.25390625 C12.57881392 30.05680923 15.10791589 27.00959582 16.0625 21.625 C16.34748006 16.65461246 14.99378282 12.95000599 12 9 C8.832409 6.42633231 6.06691197 4.62567876 2 4 C2 3.34 2 2.68 2 2 C1.01 1.67 0.02 1.34 -1 1 C-0.67 0.67 -0.34 0.34 0 0 Z " fill="#908B8D" transform="translate(376,87)"/>
<path d="M0 0 C0 0.33 0 0.66 0 1 C-1.64548828 1.05607422 -1.64548828 1.05607422 -3.32421875 1.11328125 C-4.77867857 1.17896653 -6.23310416 1.24541299 -7.6875 1.3125 C-8.40873047 1.33505859 -9.12996094 1.35761719 -9.87304688 1.38085938 C-15.32105369 1.65450355 -18.58907805 2.89311024 -22.765625 6.54296875 C-26.0336517 10.16359833 -27.93789739 13.06617488 -28.1484375 18.0234375 C-27.88134164 21.58002971 -27.20506353 24.23054521 -25 27 C-20.83174459 30.27745889 -16.07589045 32.5033979 -11.30078125 34.75390625 C-10.35682495 35.20540039 -10.35682495 35.20540039 -9.39379883 35.66601562 C-7.57382923 36.5275508 -5.74023848 37.36013104 -3.90625 38.19140625 C-0.6717819 40.204254 0.05844153 41.37623879 1 45 C-2 44 -2 44 -4 41 C-6.56400957 39.75367377 -6.56400957 39.75367377 -9.5625 38.6875 C-17.85968486 35.36464659 -24.8306063 31.43100344 -30 24 C-30.94171168 21.10930275 -31.13525419 18.46761169 -31.125 15.4375 C-31.12757812 14.67308594 -31.13015625 13.90867187 -31.1328125 13.12109375 C-31 11 -31 11 -30 8 C-28.66666667 7.33333333 -27.33333333 6.66666667 -26 6 C-25.21625 5.175 -24.4325 4.35 -23.625 3.5 C-17.1393725 -2.6767881 -8.02104786 -2.84078778 0 0 Z " fill="#9F9695" transform="translate(35,64)"/>
<path d="M0 0 C0.99 0 1.98 0 3 0 C3 19.14 3 38.28 3 58 C-1.70643585 59.88257434 -4.91734606 60.2467933 -9.8125 60.125 C-10.85180664 60.11146484 -10.85180664 60.11146484 -11.91210938 60.09765625 C-13.60822395 60.07426157 -15.30415871 60.03839641 -17 60 C-17.495 58.515 -17.495 58.515 -18 57 C-11.73 57.33 -5.46 57.66 1 58 C0.505 29.29 0.505 29.29 0 0 Z " fill="#797376" transform="translate(336,65)"/>
<path d="M0 0 C4.70652905 0.5447785 8.16514812 2.66228049 12.0625 5.1875 C12.67416016 5.56197266 13.28582031 5.93644531 13.91601562 6.32226562 C18.04495817 8.96925257 20.68976216 11.55462792 23 16 C23.97494392 21.50556567 23.74560521 26.45355956 21.3125 31.5 C15.99377943 37.24996818 10.79994784 40.66734442 2.82910156 41.12451172 C-2.45093714 41.25368371 -7.72150107 41.15374269 -13 41 C-13 40.34 -13 39.68 -13 39 C-11.81664063 38.97421875 -10.63328125 38.9484375 -9.4140625 38.921875 C4.9664942 38.47540282 4.9664942 38.47540282 17.5625 32 C20.82498989 27.46088363 20.81284255 21.3664197 20 16 C17.00107235 9.21923881 10.2096957 6.9657081 3.73046875 4.359375 C2.82941406 3.91078125 1.92835937 3.4621875 1 3 C0.67 2.01 0.34 1.02 0 0 Z " fill="#868082" transform="translate(28,85)"/>
<path d="M0 0 C4.82380802 -0.0246519 9.64757967 -0.04283693 14.47143555 -0.05493164 C16.11369464 -0.05997174 17.75594923 -0.06680378 19.39819336 -0.07543945 C21.75375479 -0.08751926 24.10925709 -0.09323139 26.46484375 -0.09765625 C27.20339096 -0.10281754 27.94193817 -0.10797882 28.7028656 -0.11329651 C30.46898088 -0.1134925 32.23497146 -0.06194719 34 0 C35.66684015 1.66684015 35.21072764 3.65643069 35.25 5.9375 C35.27578125 6.83339844 35.3015625 7.72929688 35.328125 8.65234375 C35.21984375 9.42707031 35.1115625 10.20179687 35 11 C31.81406478 13.12395681 31.2256966 13.23302642 27.62109375 13.046875 C26.78255859 13.00433594 25.94402344 12.96179688 25.08007812 12.91796875 C24.20802734 12.86253906 23.33597656 12.80710937 22.4375 12.75 C21.56158203 12.71003906 20.68566406 12.67007813 19.78320312 12.62890625 C13.25713648 12.25713648 13.25713648 12.25713648 11 10 C18.26 10 25.52 10 33 10 C33 7.36 33 4.72 33 2 C21.78 2 10.56 2 -1 2 C-0.67 1.34 -0.34 0.68 0 0 Z " fill="#898286" transform="translate(241,64)"/>
<path d="M0 0 C3.10414702 -0.02903577 6.20825909 -0.0468107 9.3125 -0.0625 C10.19357422 -0.07087891 11.07464844 -0.07925781 11.98242188 -0.08789062 C12.82998047 -0.09111328 13.67753906 -0.09433594 14.55078125 -0.09765625 C15.72120972 -0.10551147 15.72120972 -0.10551147 16.9152832 -0.11352539 C19 0 19 0 22 1 C22.02689216 2.47906892 22.04634621 3.95827483 22.0625 5.4375 C22.07410156 6.26121094 22.08570313 7.08492188 22.09765625 7.93359375 C22 10 22 10 21 11 C19.44051458 11.15686249 17.87457332 11.25076639 16.30859375 11.31640625 C15.36435547 11.35830078 14.42011719 11.40019531 13.44726562 11.44335938 C11.95743164 11.50233398 11.95743164 11.50233398 10.4375 11.5625 C9.44041016 11.60568359 8.44332031 11.64886719 7.41601562 11.69335938 C4.9441585 11.79980298 2.4721969 11.90181928 0 12 C-0.04898438 12.78246094 -0.09796875 13.56492187 -0.1484375 14.37109375 C-0.22320312 15.38300781 -0.29796875 16.39492187 -0.375 17.4375 C-0.44460937 18.44683594 -0.51421875 19.45617187 -0.5859375 20.49609375 C-0.72257812 21.32238281 -0.85921875 22.14867188 -1 23 C-1.66 23.33 -2.32 23.66 -3 24 C-3.02685412 21.68756208 -3.04632841 19.3750373 -3.0625 17.0625 C-3.07410156 15.77472656 -3.08570312 14.48695312 -3.09765625 13.16015625 C-3 10 -3 10 -2 9 C-0.29227642 8.91286169 1.41898649 8.89299993 3.12890625 8.90234375 C4.68061523 8.90717773 4.68061523 8.90717773 6.26367188 8.91210938 C7.35228516 8.92048828 8.44089844 8.92886719 9.5625 8.9375 C11.2012207 8.94426758 11.2012207 8.94426758 12.87304688 8.95117188 C15.58208495 8.96300174 18.29101599 8.97948457 21 9 C20.67 6.69 20.34 4.38 20 2 C13.4 2 6.8 2 0 2 C0 1.34 0 0.68 0 0 Z " fill="#857E83" transform="translate(109,88)"/>
<path d="M0 0 C1.17433594 0.01417969 2.34867188 0.02835937 3.55859375 0.04296875 C5.32396484 0.05263672 5.32396484 0.05263672 7.125 0.0625 C9.99609375 0.23046875 9.99609375 0.23046875 10.99609375 1.23046875 C11.06835877 3.08334377 11.07990595 4.93880753 11.05859375 6.79296875 C11.04957031 7.80488281 11.04054687 8.81679687 11.03125 9.859375 C11.01964844 10.64183594 11.00804687 11.42429687 10.99609375 12.23046875 C1.24638319 13.04415547 -8.47132857 13.36141797 -18.25390625 13.41796875 C-19.34888428 13.43085937 -20.4438623 13.44375 -21.57202148 13.45703125 C-22.60657471 13.45832031 -23.64112793 13.45960937 -24.70703125 13.4609375 C-25.63161133 13.46504639 -26.55619141 13.46915527 -27.50878906 13.47338867 C-30.00390625 13.23046875 -30.00390625 13.23046875 -34.00390625 11.23046875 C-19.81390625 11.23046875 -5.62390625 11.23046875 8.99609375 11.23046875 C8.99609375 8.26046875 8.99609375 5.29046875 8.99609375 2.23046875 C4.37609375 2.23046875 -0.24390625 2.23046875 -5.00390625 2.23046875 C-3.00390625 0.23046875 -3.00390625 0.23046875 0 0 Z " fill="#716C6F" transform="translate(125.00390625,111.76953125)"/>
<path d="M0 0 C0.99 0.33 1.98 0.66 3 1 C2.71801758 1.64437012 2.43603516 2.28874023 2.14550781 2.95263672 C0.8454008 5.9260592 -0.45231087 8.90052154 -1.75 11.875 C-2.1934375 12.88820313 -2.636875 13.90140625 -3.09375 14.9453125 C-5.5612963 20.60615401 -7.91850521 26.26917727 -10.02880859 32.07397461 C-11 34 -11 34 -13.875 35.6875 C-19.95546559 36.29554656 -19.95546559 36.29554656 -23 35 C-25.05479565 31.82342614 -26.56649272 28.49496686 -28 25 C-27.34 24.34 -26.68 23.68 -26 23 C-25.731875 23.71027344 -25.46375 24.42054687 -25.1875 25.15234375 C-23.16182536 30.52624578 -23.16182536 30.52624578 -18.88671875 33.88671875 C-16.44461164 34.20373004 -16.44461164 34.20373004 -13 34 C-12.88140625 33.47535156 -12.7628125 32.95070312 -12.640625 32.41015625 C-10.34872045 23.78756413 -6.92205278 15.45411159 -3.11328125 7.40234375 C-1.98413105 4.96575648 -0.97641107 2.50121739 0 0 Z " fill="#827A7E" transform="translate(197,90)"/>
<path d="M0 0 C3 1 3 1 4 3 C4.203125 5.09375 4.203125 5.09375 4.25 7.5 C4.27578125 8.2940625 4.3015625 9.088125 4.328125 9.90625 C4.21984375 10.5971875 4.1115625 11.288125 4 12 C3.01 12.66 2.02 13.32 1 14 C-1.3828125 13.50390625 -1.3828125 13.50390625 -4.125 12.5625 C-9.58221933 10.90571437 -13.41943716 10.993669 -19 12 C-19.33 13.65 -19.66 15.3 -20 17 C-19.01 17.66 -18.02 18.32 -17 19 C-17 19.66 -17 20.32 -17 21 C-21.875 19.125 -21.875 19.125 -23 18 C-23.3125 15.125 -23.3125 15.125 -23 12 C-20.61626615 9.23486873 -17.87601636 8.3943045 -14.28125 7.984375 C-9.13585179 8.01961745 -4.04923507 9.081267 1 10 C1.03863818 6.47426635 1.04191977 3.38623926 0 0 Z " fill="#837E81" transform="translate(43,64)"/>
<path d="M0 0 C4.1117256 -0.02465746 8.22342278 -0.04283959 12.33520508 -0.05493164 C13.73495228 -0.0599708 15.1346942 -0.06680216 16.53442383 -0.07543945 C18.54245777 -0.0875232 20.55052957 -0.09269807 22.55859375 -0.09765625 C24.37315063 -0.10551147 24.37315063 -0.10551147 26.22436523 -0.11352539 C29 0 29 0 30 1 C30.16796875 2.99609375 30.16796875 2.99609375 30.1875 5.4375 C30.20167969 6.24058594 30.21585938 7.04367188 30.23046875 7.87109375 C30 10 30 10 28 12 C25.1796875 12.1953125 25.1796875 12.1953125 21.875 12.125 C20.77929688 12.10695313 19.68359375 12.08890625 18.5546875 12.0703125 C17.71164063 12.04710938 16.86859375 12.02390625 16 12 C18 10 18 10 20.3828125 9.8046875 C21.28773437 9.82789062 22.19265625 9.85109375 23.125 9.875 C24.03507812 9.89304687 24.94515625 9.91109375 25.8828125 9.9296875 C26.58148438 9.95289062 27.28015625 9.97609375 28 10 C28 7.36 28 4.72 28 2 C18.43 2 8.86 2 -1 2 C-0.67 1.34 -0.34 0.68 0 0 Z " fill="#94868D" transform="translate(105,64)"/>
<path d="M0 0 C0.66 0 1.32 0 2 0 C2.15855469 0.59167969 2.31710938 1.18335937 2.48046875 1.79296875 C4.31441715 8.00407575 6.26449491 11.9262205 12.16015625 15.19921875 C14.75664777 16.50363684 17.37573933 17.75246117 20 19 C22.03069064 20.00108121 24.05179911 21.02185117 26.0625 22.0625 C27.44115234 22.76052734 27.44115234 22.76052734 28.84765625 23.47265625 C31 25 31 25 31.80859375 27.18359375 C31.87175781 27.78300781 31.93492188 28.38242188 32 29 C29 28 29 28 27 25 C24.43599043 23.75367377 24.43599043 23.75367377 21.4375 22.6875 C13.32831076 19.43993501 5.80767932 15.51199895 1 8 C0.34170891 5.2678445 0.14628522 2.82818083 0 0 Z " fill="#8A8083" transform="translate(4,80)"/>
<path d="M0 0 C0.66 0.33 1.32 0.66 2 1 C3.4465242 1.15067214 4.8987934 1.24861036 6.3515625 1.31640625 C7.62773437 1.37924805 7.62773437 1.37924805 8.9296875 1.44335938 C9.81914062 1.48267578 10.70859375 1.52199219 11.625 1.5625 C12.97078125 1.62727539 12.97078125 1.62727539 14.34375 1.69335938 C16.56234283 1.79956861 18.7810488 1.90161194 21 2 C23.30903272 5.98352209 22.86516528 8.50114053 22 13 C19.04210873 13.2210949 16.08447236 13.42740245 13.125 13.625 C11.86236328 13.72167969 11.86236328 13.72167969 10.57421875 13.8203125 C9.76855469 13.871875 8.96289062 13.9234375 8.1328125 13.9765625 C7.38918457 14.02893066 6.64555664 14.08129883 5.87939453 14.13525391 C4 14 4 14 2 12 C7.94 11.67 13.88 11.34 20 11 C20.33 8.69 20.66 6.38 21 4 C13.74 4 6.48 4 -1 4 C-0.67 2.68 -0.34 1.36 0 0 Z " fill="#898488" transform="translate(250,86)"/>
<path d="M0 0 C0.7734375 0.495 0.7734375 0.495 1.5625 1 C-3.10959049 2.43023178 -7.56853697 3.40380045 -12.4375 4 C-12.4375 5.65 -12.4375 7.3 -12.4375 9 C-8.9725 10.485 -8.9725 10.485 -5.4375 12 C-5.7675 12.66 -6.0975 13.32 -6.4375 14 C-9.58702839 13.3001048 -12.5027503 12.34839851 -15.4375 11 C-16.9158226 8.04335481 -16.49782783 5.25770263 -16.4375 2 C-10.9042928 -0.7101423 -6.06533395 -2.48834214 0 0 Z " fill="#968E91" transform="translate(379.4375,73)"/>
<path d="M0 0 C0.99 0.33 1.98 0.66 3 1 C3 13.54 3 26.08 3 39 C2.67 39 2.34 39 2 39 C1.06912091 35.06711636 0.88391115 31.42345837 0.90234375 27.38671875 C0.90556641 26.13955078 0.90878906 24.89238281 0.91210938 23.60742188 C0.92467773 21.66706055 0.92467773 21.66706055 0.9375 19.6875 C0.94201172 18.37458984 0.94652344 17.06167969 0.95117188 15.70898438 C0.96294051 12.4726099 0.9793824 9.23632822 1 6 C0.01 5.67 -0.98 5.34 -2 5 C-1.34 3.35 -0.68 1.7 0 0 Z " fill="#857E81" transform="translate(200,83)"/>
<path d="M0 0 C0.99 0.495 0.99 0.495 2 1 C2.91739307 4.62993184 3.40455491 8.29973411 4 12 C12.415 13.485 12.415 13.485 21 15 C21 15.33 21 15.66 21 16 C14.4 16 7.8 16 1 16 C-0.50156874 12.99686252 -0.09281204 10.20932478 -0.0625 6.875 C-0.05347656 5.59367187 -0.04445312 4.31234375 -0.03515625 2.9921875 C-0.02355469 2.00476563 -0.01195312 1.01734375 0 0 Z " fill="#928C93" transform="translate(247,98)"/>
<path d="M0 0 C4.70652905 0.5447785 8.16514812 2.66228049 12.0625 5.1875 C12.67416016 5.56197266 13.28582031 5.93644531 13.91601562 6.32226562 C18.0435791 8.96836848 20.64838846 11.58129289 23 16 C23.471333 18.81857133 23.19896432 21.11501733 23 24 C22.34 24.33 21.68 24.66 21 25 C20.99613281 24.14728516 20.99613281 24.14728516 20.9921875 23.27734375 C20.72796728 18.00174679 19.82169747 14.50636145 16.16015625 10.62890625 C12.38904414 7.78522859 8.09103429 6.1134556 3.73046875 4.359375 C2.82941406 3.91078125 1.92835937 3.4621875 1 3 C0.67 2.01 0.34 1.02 0 0 Z " fill="#827D7E" transform="translate(28,85)"/>
<path d="M0 0 C0 0.66 0 1.32 0 2 C-1.79244141 2.14695312 -1.79244141 2.14695312 -3.62109375 2.296875 C-12.11751058 3.069601 -19.41481074 3.78600597 -27 8 C-27 6.68 -27 5.36 -27 4 C-17.89281619 -0.32205334 -9.83500914 -0.44424132 0 0 Z " fill="#948D8F" transform="translate(381,63)"/>
<path d="M0 0 C0.99 0 1.98 0 3 0 C2.02706475 2.65345977 1.37631844 3.7897044 -1.125 5.1875 C-9.66033248 7.59965918 -15.562067 6.48919024 -24 4 C-23.67 3.01 -23.34 2.02 -23 1 C-22.29875 1.144375 -21.5975 1.28875 -20.875 1.4375 C-10.42518316 3.54091117 -10.42518316 3.54091117 0 2 C0 1.34 0 0.68 0 0 Z " fill="#938C92" transform="translate(33,110)"/>
<path d="M0 0 C0.33 0 0.66 0 1 0 C1 7.92 1 15.84 1 24 C-2.90527225 25.95263613 -4.43342118 26.27259611 -8.625 26.25 C-9.58664063 26.25515625 -10.54828125 26.2603125 -11.5390625 26.265625 C-14 26 -14 26 -16 24 C-11.38 23.67 -6.76 23.34 -2 23 C-1.34 15.41 -0.68 7.82 0 0 Z " fill="#6D6365" transform="translate(76,99)"/>
<path d="M0 0 C1.125 3.75 1.125 3.75 0 6 C-0.52383318 11.25550671 -0.61997842 15.66466186 1.625 20.5 C4.21567188 23.22702303 6.5352182 24.58258926 10 26 C9.67 26.66 9.34 27.32 9 28 C3.74855359 26.60991124 1.12699328 23.1957125 -2 19 C-4.07813275 14.8437345 -3.65449025 9.15753473 -2.328125 4.78515625 C-1.62256141 3.15770062 -0.82050811 1.57264054 0 0 Z " fill="#898486" transform="translate(351,70)"/>
<path d="M0 0 C3 0.3125 3 0.3125 6 1 C6.33 1.66 6.66 2.32 7 3 C6.01 3.33 5.02 3.66 4 4 C3.9175 5.27875 3.835 6.5575 3.75 7.875 C3.609375 10.0546875 3.609375 10.0546875 3 12 C0.953125 13.2578125 0.953125 13.2578125 -1 14 C-1.02685938 11.85423363 -1.04633088 9.70837355 -1.0625 7.5625 C-1.07410156 6.36753906 -1.08570313 5.17257813 -1.09765625 3.94140625 C-1 1 -1 1 0 0 Z " fill="#9C9599" transform="translate(248,74)"/>
<path d="M0 0 C0.66 0.33 1.32 0.66 2 1 C2.0867562 5.29154022 2.1403089 9.58285668 2.1875 13.875 C2.21263672 15.09832031 2.23777344 16.32164063 2.26367188 17.58203125 C2.27333984 18.74863281 2.28300781 19.91523437 2.29296875 21.1171875 C2.3086792 22.19597168 2.32438965 23.27475586 2.34057617 24.38623047 C2.17199097 25.68004639 2.17199097 25.68004639 2 27 C1.01 27.66 0.02 28.32 -1 29 C-1.02891546 24.54168018 -1.04676981 20.08338431 -1.0625 15.625 C-1.07087891 14.35398437 -1.07925781 13.08296875 -1.08789062 11.7734375 C-1.09111328 10.56171875 -1.09433594 9.35 -1.09765625 8.1015625 C-1.10289307 6.98088379 -1.10812988 5.86020508 -1.11352539 4.70556641 C-1 2 -1 2 0 0 Z " fill="#8E888B" transform="translate(298,94)"/>
<path d="M0 0 C1.15628906 -0.01417969 2.31257812 -0.02835938 3.50390625 -0.04296875 C6.4375 0.1875 6.4375 0.1875 8.4375 2.1875 C8.4375 3.5075 8.4375 4.8275 8.4375 6.1875 C7.7775 6.1875 7.1175 6.1875 6.4375 6.1875 C6.4375 5.5275 6.4375 4.8675 6.4375 4.1875 C1.07654667 3.05887825 -4.11556686 3.09061779 -9.5625 3.1875 C-9.5625 2.5275 -9.5625 1.8675 -9.5625 1.1875 C-6.1971364 0.06571213 -3.5421245 0.01978841 0 0 Z " fill="#969195" transform="translate(160.5625,63.8125)"/>
<path d="M0 0 C0.66 0 1.32 0 2 0 C2 2.64 2 5.28 2 8 C-2.27884606 10.1103435 -6.13864142 10.24128739 -10.8125 10.125 C-11.85180664 10.11146484 -11.85180664 10.11146484 -12.91210938 10.09765625 C-14.60822395 10.07426157 -16.30415871 10.03839641 -18 10 C-18.33 9.01 -18.66 8.02 -19 7 C-12.73 7.33 -6.46 7.66 0 8 C0 5.36 0 2.72 0 0 Z " fill="#6E6869" transform="translate(337,115)"/>
<path d="M0 0 C2.08535753 2.08535753 2.57957066 3.3707637 3.625 6.0625 C5.08628086 9.19433082 5.08628086 9.19433082 8.0390625 10.74609375 C10.5000074 11.07130694 10.5000074 11.07130694 14 11 C14.12375 10.443125 14.2475 9.88625 14.375 9.3125 C15.05976855 6.77885636 15.99133763 4.42078968 17 2 C17.33 2 17.66 2 18 2 C17.25 8.625 17.25 8.625 15 12 C12.01974517 12.96081575 9.1202007 13.16715361 6 13 C1.59489522 10.33375237 0.55979759 5.67939277 -1 1 C-0.67 0.67 -0.34 0.34 0 0 Z " fill="#787376" transform="translate(170,113)"/>
<path d="M0 0 C0.33 0.99 0.66 1.98 1 3 C-2.1866287 4.91490073 -4.09464078 5.14885721 -7.75 4.625 C-11.02924061 4.20359094 -14.13296709 3.9586607 -17.4375 4.0625 C-21 4 -21 4 -24 2 C-19.24243735 0.76226012 -14.62281838 0.92265368 -9.75 1 C-6.82770487 1.04551862 -3.92349185 1.047344 -1 1 C-0.67 0.67 -0.34 0.34 0 0 Z " fill="#938D92" transform="translate(377,111)"/>
<path d="M0 0 C0.66 0.66 1.32 1.32 2 2 C2.66 1.67 3.32 1.34 4 1 C4.66 1.66 5.32 2.32 6 3 C6.33 3 6.66 3 7 3 C7.33 5.64 7.66 8.28 8 11 C6.35 10.01 4.7 9.02 3 8 C3 8.66 3 9.32 3 10 C2.34 10 1.68 10 1 10 C0.67 10.66 0.34 11.32 0 12 C0 8.04 0 4.08 0 0 Z " fill="#A1969F" transform="translate(297,84)"/>
<path d="M0 0 C0.99 0 1.98 0 3 0 C3 0.66 3 1.32 3 2 C2.34 2 1.68 2 1 2 C1 9.26 1 16.52 1 24 C0.34 24.33 -0.32 24.66 -1 25 C-1.02886984 21.02084841 -1.04675406 17.04172347 -1.0625 13.0625 C-1.07087891 11.92619141 -1.07925781 10.78988281 -1.08789062 9.61914062 C-1.09111328 8.53955078 -1.09433594 7.45996094 -1.09765625 6.34765625 C-1.10289307 5.34742432 -1.10812988 4.34719238 -1.11352539 3.31665039 C-1 1 -1 1 0 0 Z " fill="#8C8488" transform="translate(146,64)"/>
<path d="M0 0 C0.66 0.99 1.32 1.98 2 3 C-1.25655147 10.07945971 -5.90592933 13.78051048 -13.03515625 16.88671875 C-14.875 17.5 -14.875 17.5 -18 18 C-18.99 17.34 -19.98 16.68 -21 16 C-20.27554687 15.84144531 -19.55109375 15.68289062 -18.8046875 15.51953125 C-12.58248981 14.01790754 -8.3500974 12.77449715 -4 8 C-2.46394248 5.4094077 -1.17004888 2.7737041 0 0 Z " fill="#87787B" transform="translate(393,108)"/>
<path d="M0 0 C1.51400391 0.01740234 1.51400391 0.01740234 3.05859375 0.03515625 C4.07050781 0.04417969 5.08242187 0.05320312 6.125 0.0625 C7.29869141 0.07990234 7.29869141 0.07990234 8.49609375 0.09765625 C8.49609375 0.75765625 8.49609375 1.41765625 8.49609375 2.09765625 C4.04109375 2.59265625 4.04109375 2.59265625 -0.50390625 3.09765625 C-0.83390625 7.05765625 -1.16390625 11.01765625 -1.50390625 15.09765625 C-2.16390625 14.76765625 -2.82390625 14.43765625 -3.50390625 14.09765625 C-3.53076563 11.95188988 -3.55023713 9.8060298 -3.56640625 7.66015625 C-3.57800781 6.46519531 -3.58960937 5.27023438 -3.6015625 4.0390625 C-3.47195922 0.13541183 -3.47195922 0.13541183 0 0 Z " fill="#8F8B8E" transform="translate(109.50390625,73.90234375)"/>
<path d="M0 0 C0.33 0 0.66 0 1 0 C1 3.3 1 6.6 1 10 C-4.30017571 11.11582647 -9.60118412 11.34568689 -15 11 C-16 10 -16 10 -16.0625 6.4375 C-16.041875 5.303125 -16.02125 4.16875 -16 3 C-15.67 3 -15.34 3 -15 3 C-14.67 4.65 -14.34 6.3 -14 8 C-9.71 8.33 -5.42 8.66 -1 9 C-0.67 6.03 -0.34 3.06 0 0 Z " fill="#767374" transform="translate(217,114)"/>
<path d="M0 0 C1.32 0.33 2.64 0.66 4 1 C3.835 1.598125 3.67 2.19625 3.5 2.8125 C2.8885876 5.11344336 2.8885876 5.11344336 3 8 C2.84448511 10.2299724 2.67650765 12.45909096 2.5 14.6875 C2.4071875 15.86699219 2.314375 17.04648438 2.21875 18.26171875 C2.1465625 19.16535156 2.074375 20.06898437 2 21 C1.34 21 0.68 21 0 21 C0 14.07 0 7.14 0 0 Z " fill="#8B868A" transform="translate(156,83)"/>
<path d="M0 0 C6.93 0 13.86 0 21 0 C21 0.99 21 1.98 21 3 C17.8742604 2.89037184 14.74975219 2.75968759 11.625 2.625 C10.73554688 2.5940625 9.84609375 2.563125 8.9296875 2.53125 C8.07890625 2.49257812 7.228125 2.45390625 6.3515625 2.4140625 C5.56604004 2.3826416 4.78051758 2.3512207 3.97119141 2.31884766 C2 2 2 2 0 0 Z " fill="#928D8F" transform="translate(252,74)"/>
<path d="M0 0 C0 0.33 0 0.66 0 1 C-1.09699219 1.04898438 -2.19398437 1.09796875 -3.32421875 1.1484375 C-4.77866925 1.22350591 -6.23309516 1.29905197 -7.6875 1.375 C-8.7693457 1.42140625 -8.7693457 1.42140625 -9.87304688 1.46875 C-13.97210394 1.69335587 -17.24368459 2.17740909 -21 4 C-20.35546875 2.0859375 -20.35546875 2.0859375 -19 0 C-12.53032613 -2.25800454 -6.32990298 -2.58950576 0 0 Z " fill="#897B7F" transform="translate(35,64)"/>
<path d="M0 0 C2.21637574 3.32456361 3.68814818 6.75791424 5.1875 10.4375 C5.47302734 11.10587891 5.75855469 11.77425781 6.05273438 12.46289062 C7.54228421 16.11971734 8.20781636 18.24447018 7 22 C5.63021499 18.90249398 4.28193428 15.79608343 2.9375 12.6875 C2.54755859 11.80642578 2.15761719 10.92535156 1.75585938 10.01757812 C1.39169922 9.17001953 1.02753906 8.32246094 0.65234375 7.44921875 C0.31195068 6.66893311 -0.02844238 5.88864746 -0.37915039 5.0847168 C-1 3 -1 3 0 0 Z " fill="#868184" transform="translate(169,69)"/>
<path d="M0 0 C2.3431213 0.25561323 4.67843403 0.59270772 7 1 C8.26237731 3.52475462 8.09856404 5.31200466 8.0625 8.125 C8.05347656 9.03507812 8.04445313 9.94515625 8.03515625 10.8828125 C8.02355469 11.58148438 8.01195312 12.28015625 8 13 C6.68 13 5.36 13 4 13 C4 12.34 4 11.68 4 11 C4.66 11 5.32 11 6 11 C6 8.36 6 5.72 6 3 C3.03 2.505 3.03 2.505 0 2 C0 1.34 0 0.68 0 0 Z " fill="#8E898A" transform="translate(382,64)"/>
<path d="M0 0 C1.77503906 0.03480469 1.77503906 0.03480469 3.5859375 0.0703125 C5.36871094 0.09738281 5.36871094 0.09738281 7.1875 0.125 C8.10273438 0.14820312 9.01796875 0.17140625 9.9609375 0.1953125 C10.5859375 2.5703125 10.5859375 2.5703125 10.9609375 5.1953125 C10.3009375 5.8553125 9.6409375 6.5153125 8.9609375 7.1953125 C8.9609375 5.5453125 8.9609375 3.8953125 8.9609375 2.1953125 C4.3409375 2.1953125 -0.2790625 2.1953125 -5.0390625 2.1953125 C-3.0390625 0.1953125 -3.0390625 0.1953125 0 0 Z " fill="#867985" transform="translate(125.0390625,111.8046875)"/>
<path d="M0 0 C0.99 0.33 1.98 0.66 3 1 C2.67 4.3 2.34 7.6 2 11 C3.32 11.33 4.64 11.66 6 12 C4.35 12 2.7 12 1 12 C-1.32488647 8.36736489 -1.23961213 5.23314767 -1 1 C-0.67 0.67 -0.34 0.34 0 0 Z " fill="#8E898E" transform="translate(6,112)"/>
<path d="M0 0 C2 2 2 2 2.1953125 4.1640625 C2.17210937 4.97617188 2.14890625 5.78828125 2.125 6.625 C2.10695313 7.44226563 2.08890625 8.25953125 2.0703125 9.1015625 C2.03550781 10.04128906 2.03550781 10.04128906 2 11 C2.66 11.33 3.32 11.66 4 12 C4 12.66 4 13.32 4 14 C2.35 13.67 0.7 13.34 -1 13 C-2.01936725 9.94189824 -2.00186825 8.50198793 -1.625 5.375 C-1.53476562 4.57835938 -1.44453125 3.78171875 -1.3515625 2.9609375 C-1 1 -1 1 0 0 Z " fill="#898285" transform="translate(350,111)"/>
<path d="M0 0 C0.99 0.33 1.98 0.66 3 1 C3.6875 3.0625 3.6875 3.0625 4 5 C4.99 5 5.98 5 7 5 C6.42655063 7.86724686 6.1385485 8.8614515 4 11 C3.32591692 9.73308493 2.66099503 8.46129251 2 7.1875 C1.62875 6.47980469 1.2575 5.77210937 0.875 5.04296875 C0 3 0 3 0 0 Z " fill="#979094" transform="translate(320,93)"/>
<path d="M0 0 C7.26 0 14.52 0 22 0 C22 0.33 22 0.66 22 1 C16.06 1 10.12 1 4 1 C4 1.66 4 2.32 4 3 C3.34 3 2.68 3 2 3 C1.67 4.32 1.34 5.64 1 7 C0.67 4.69 0.34 2.38 0 0 Z " fill="#A98BA5" transform="translate(248,97)"/>
<path d="M0 0 C3.93639176 1.31213059 4.28653597 2.82801522 6.1875 6.4375 C6.71730469 7.42621094 7.24710937 8.41492188 7.79296875 9.43359375 C9 12 9 12 9 14 C8.34 14 7.68 14 7 14 C0 4.51612903 0 4.51612903 0 0 Z " fill="#8F8B8C" transform="translate(311,77)"/>
<path d="M0 0 C3 1 3 1 4.60546875 3.72265625 C5.12753906 4.82480469 5.64960938 5.92695312 6.1875 7.0625 C6.71730469 8.16722656 7.24710937 9.27195312 7.79296875 10.41015625 C8.19128906 11.26480469 8.58960938 12.11945313 9 13 C8.01 13 7.02 13 6 13 C4.99759911 11.02204824 3.99813957 9.04260558 3 7.0625 C2.1646875 5.40927734 2.1646875 5.40927734 1.3125 3.72265625 C0 1 0 1 0 0 Z " fill="#8B8788" transform="translate(311,109)"/>
<path d="M0 0 C0 4.62 0 9.24 0 14 C-0.66 13.01 -1.32 12.02 -2 11 C-1.67 10.01 -1.34 9.02 -1 8 C-1.99 8 -2.98 8 -4 8 C-3.74438677 5.6568787 -3.40729228 3.32156597 -3 1 C-1 0 -1 0 0 0 Z " fill="#A19B9E" transform="translate(328,90)"/>
<path d="M0 0 C3 1 3 1 4 3 C4.203125 5.09375 4.203125 5.09375 4.25 7.5 C4.27578125 8.2940625 4.3015625 9.088125 4.328125 9.90625 C4.21984375 10.5971875 4.1115625 11.288125 4 12 C3.01 12.66 2.02 13.32 1 14 C1.01160156 13.32453125 1.02320313 12.6490625 1.03515625 11.953125 C1.04417969 11.06109375 1.05320313 10.1690625 1.0625 9.25 C1.07990234 7.92742187 1.07990234 7.92742187 1.09765625 6.578125 C1.00826198 4.2181162 0.66912821 2.25501476 0 0 Z " fill="#7F787C" transform="translate(43,64)"/>
<path d="M0 0 C0.89332031 0.12761719 1.78664063 0.25523438 2.70703125 0.38671875 C3.60808594 0.50660156 4.50914063 0.62648437 5.4375 0.75 C6.12457031 0.85699219 6.81164063 0.96398438 7.51953125 1.07421875 C7.84953125 2.06421875 8.17953125 3.05421875 8.51953125 4.07421875 C1.58953125 3.57921875 1.58953125 3.57921875 -5.48046875 3.07421875 C-2.48046875 0.07421875 -2.48046875 0.07421875 0 0 Z " fill="#9D999B" transform="translate(35.48046875,62.92578125)"/>
<path d="M0 0 C0.33 0.99 0.66 1.98 1 3 C0 4 0 4 -2.72265625 4.09765625 C-4.37587891 4.08025391 -4.37587891 4.08025391 -6.0625 4.0625 C-7.71958984 4.04896484 -7.71958984 4.04896484 -9.41015625 4.03515625 C-10.26480469 4.02355469 -11.11945313 4.01195313 -12 4 C-12.33 3.34 -12.66 2.68 -13 2 C-12.14535156 1.93941406 -11.29070312 1.87882812 -10.41015625 1.81640625 C-8.75306641 1.69072266 -8.75306641 1.69072266 -7.0625 1.5625 C-5.96035156 1.48128906 -4.85820312 1.40007812 -3.72265625 1.31640625 C-1.08890097 1.29581916 -1.08890097 1.29581916 0 0 Z " fill="#7A7679" transform="translate(299,121)"/>
<path d="M0 0 C0.99 0.33 1.98 0.66 3 1 C3 4.3 3 7.6 3 11 C2.34 10.67 1.68 10.34 1 10 C1 8.68 1 7.36 1 6 C0.01 5.67 -0.98 5.34 -2 5 C-1.34 3.35 -0.68 1.7 0 0 Z " fill="#8F8A8E" transform="translate(200,83)"/>
<path d="M0 0 C4.75481646 0.57634139 7.97048212 2.55068521 12 5 C11.34 5.66 10.68 6.32 10 7 C8.51545194 6.40917986 7.03745649 5.80187345 5.5625 5.1875 C4.73878906 4.85105469 3.91507813 4.51460938 3.06640625 4.16796875 C1 3 1 3 0 0 Z " fill="#8C888B" transform="translate(28,85)"/>
<path d="M0 0 C2.05078125 0.03255208 4.1015625 0.06510417 6.15234375 0.09765625 C6.15234375 0.75765625 6.15234375 1.41765625 6.15234375 2.09765625 C3.84234375 2.09765625 1.53234375 2.09765625 -0.84765625 2.09765625 C-1.17765625 3.74765625 -1.50765625 5.39765625 -1.84765625 7.09765625 C-2.17765625 7.09765625 -2.50765625 7.09765625 -2.84765625 7.09765625 C-2.89019981 5.09810879 -2.88846408 3.09723989 -2.84765625 1.09765625 C-1.84765625 0.09765625 -1.84765625 0.09765625 0 0 Z " fill="#8E8789" transform="translate(328.84765625,63.90234375)"/>
<path d="M0 0 C0.99 0.33 1.98 0.66 3 1 C1.02 5.455 1.02 5.455 -1 10 C-1.66 10 -2.32 10 -3 10 C-2.39009109 6.44219804 -1.4216319 3.3171411 0 0 Z " fill="#959095" transform="translate(196,65)"/>
<path d="M0 0 C3.15207323 0.41113999 5.98104753 0.99368251 9 2 C9 2.66 9 3.32 9 4 C1.25 3.25 1.25 3.25 -1 1 C-0.67 0.67 -0.34 0.34 0 0 Z " fill="#8F818E" transform="translate(35,73)"/>
<path d="M0 0 C1.32 0.33 2.64 0.66 4 1 C3.835 1.598125 3.67 2.19625 3.5 2.8125 C2.8885876 5.11344336 2.8885876 5.11344336 3 8 C2.34 8 1.68 8 1 8 C0.67 8.66 0.34 9.32 0 10 C0 6.7 0 3.4 0 0 Z " fill="#989195" transform="translate(156,83)"/>
<path d="M0 0 C0.33 0 0.66 0 1 0 C1 2.64 1 5.28 1 8 C0.34 8 -0.32 8 -1 8 C-1 8.66 -1 9.32 -1 10 C-2.65 9.67 -4.3 9.34 -6 9 C-5.34 8.34 -4.68 7.68 -4 7 C-2.68 7 -1.36 7 0 7 C-0.2784375 5.824375 -0.2784375 5.824375 -0.5625 4.625 C-1 2 -1 2 0 0 Z " fill="#A29D9F" transform="translate(387,67)"/>
<path d="M0 0 C0.33 0 0.66 0 1 0 C1.1875 2.875 1.1875 2.875 1 6 C-2.8503105 8.56687367 -4.58569763 7.83288724 -9 7 C-9 6.67 -9 6.34 -9 6 C-5.535 5.505 -5.535 5.505 -2 5 C-1.34 3.35 -0.68 1.7 0 0 Z " fill="#878283" transform="translate(157,117)"/>
<path d="M0 0 C1.32 0 2.64 0 4 0 C4 2 4 2 2.5 3.625 C2.005 4.07875 1.51 4.5325 1 5 C1.66 5.33 2.32 5.66 3 6 C1.68 6.33 0.36 6.66 -1 7 C-1.04254356 5.00045254 -1.04080783 2.99958364 -1 1 C-0.67 0.67 -0.34 0.34 0 0 Z " fill="#A0999B" transform="translate(235,64)"/>
<path d="M0 0 C0.99 0 1.98 0 3 0 C1.125 3.875 1.125 3.875 0 5 C-1.99958364 5.04080783 -4.00045254 5.04254356 -6 5 C-2.25 2 -2.25 2 0 2 C0 1.34 0 0.68 0 0 Z " fill="#8E868C" transform="translate(33,110)"/>
<path d="M0 0 C2.97 0.33 5.94 0.66 9 1 C8.67 1.66 8.34 2.32 8 3 C5.67843403 3.40729228 3.3431213 3.74438677 1 4 C0.67 2.68 0.34 1.36 0 0 Z " fill="#979093" transform="translate(372,72)"/>
<path d="M0 0 C0.6875 1.6875 0.6875 1.6875 1 4 C-0.4375 6.75 -0.4375 6.75 -2 9 C-2.66 8.34 -3.32 7.68 -4 7 C-1.125 1.125 -1.125 1.125 0 0 Z " fill="#7F6061" transform="translate(50,109)"/>
<path d="M0 0 C2.97 0.99 5.94 1.98 9 3 C8.67 3.66 8.34 4.32 8 5 C5.61435923 4.42415568 3.33317216 3.77772405 1 3 C0.67 2.01 0.34 1.02 0 0 Z " fill="#8F8A8C" transform="translate(365,82)"/>
<path d="M0 0 C0.33 0.99 0.66 1.98 1 3 C1.66 3.33 2.32 3.66 3 4 C2.67 5.32 2.34 6.64 2 8 C1.01 8 0.02 8 -1 8 C-0.67 5.36 -0.34 2.72 0 0 Z " fill="#908D8D" transform="translate(5,72)"/>
<path d="M0 0 C0.33 0 0.66 0 1 0 C1.66 1.98 2.32 3.96 3 6 C5.97 6.495 5.97 6.495 9 7 C9 7.33 9 7.66 9 8 C2.84765625 8.09765625 2.84765625 8.09765625 1 8 C0 7 0 7 -0.0625 3.4375 C-0.041875 2.303125 -0.02125 1.16875 0 0 Z " fill="#716A6B" transform="translate(201,117)"/>
<path d="M0 0 C1.65 0.33 3.3 0.66 5 1 C5 1.99 5 2.98 5 4 C2.03 3.505 2.03 3.505 -1 3 C-0.67 2.01 -0.34 1.02 0 0 Z " fill="#9D959B" transform="translate(10,111)"/>
<path d="M0 0 C2.475 0.495 2.475 0.495 5 1 C5.33 2.98 5.66 4.96 6 7 C1.125 2.25 1.125 2.25 0 0 Z " fill="#969495" transform="translate(373,103)"/>
<path d="M0 0 C0.350625 0.474375 0.70125 0.94875 1.0625 1.4375 C3.84163543 3.67873825 6.5144717 3.67117658 10 4 C10 4.33 10 4.66 10 5 C7.03 5 4.06 5 1 5 C0.67 3.35 0.34 1.7 0 0 Z " fill="#635051" transform="translate(145,120)"/>
<path d="M0 0 C0.66 0.99 1.32 1.98 2 3 C0.625 5.5 0.625 5.5 -1 8 C-1.66 8 -2.32 8 -3 8 C-1.125 1.125 -1.125 1.125 0 0 Z " fill="#868182" transform="translate(393,108)"/>
<path d="M0 0 C0.94875 0.04125 1.8975 0.0825 2.875 0.125 C2.875 1.115 2.875 2.105 2.875 3.125 C0.235 2.795 -2.405 2.465 -5.125 2.125 C-3.125 0.125 -3.125 0.125 0 0 Z " fill="#8B8889" transform="translate(270.125,73.875)"/>
</svg>
