<?xml version="1.0" encoding="UTF-8"?>
<svg version="1.1" xmlns="http://www.w3.org/2000/svg" width="667" height="374">
<path d="M0 0 C11.55 0 23.1 0 35 0 C39.75 10.9375 39.75 10.9375 41.22167969 14.32788086 C41.81577637 15.69505249 41.81577637 15.69505249 42.421875 17.08984375 C42.85564453 18.08814209 43.28941406 19.08644043 43.73632812 20.11499023 C45.20076978 23.45836485 46.69811582 26.78612665 48.21191406 30.10742188 C49 32 49 32 50 35.5625 C51.19830185 39.68166262 53.0067152 43.21963228 55 47 C56 49 57 51 58 53 C58.32613281 52.33613281 58.65226562 51.67226562 58.98828125 50.98828125 C62.75529412 43.37647059 62.75529412 43.37647059 64.625 40.5 C65.90105641 38.17989744 66.50344405 36.3465186 67.1875 33.8125 C68.86237595 27.87025395 71.39507267 22.37366687 73.95581055 16.77270508 C76.48761262 11.22699878 78.72775863 5.68060342 81 0 C92.22 0 103.44 0 115 0 C115.02254946 12.23880658 115.04091418 24.47759947 115.05181217 36.71642208 C115.05704139 42.39876512 115.06413973 48.08109327 115.07543945 53.76342773 C115.08626696 59.24229136 115.09227654 64.72114062 115.09487724 70.20001411 C115.09673174 72.29529611 115.10035282 74.39057728 115.10573006 76.4858532 C115.11293868 79.40977584 115.11399102 82.33363833 115.11352539 85.25756836 C115.11712067 86.1329425 115.12071594 87.00831665 115.12442017 87.91021729 C115.11405216 93.88594784 115.11405216 93.88594784 114 95 C112.24314326 95.09949077 110.48232667 95.1308026 108.72265625 95.1328125 C107.65208984 95.13410156 106.58152344 95.13539063 105.47851562 95.13671875 C104.35123047 95.13285156 103.22394531 95.12898438 102.0625 95.125 C100.93908203 95.12886719 99.81566406 95.13273437 98.65820312 95.13671875 C97.58634766 95.13542969 96.51449219 95.13414062 95.41015625 95.1328125 C94.42152588 95.13168457 93.43289551 95.13055664 92.41430664 95.12939453 C90 95 90 95 88 94 C87.67 77.17 87.34 60.34 87 43 C80.6779897 55.61160054 80.6779897 55.61160054 75.15625 68.390625 C74.05814629 70.86877798 72.81323913 72.9988913 71.3125 75.25 C69.18853221 78.43923956 68.35683925 81.17779269 67.6015625 84.90234375 C66.44174797 88.94663209 64.13651115 92.40166543 62 96 C56.72 96 51.44 96 46 96 C42.47417775 89.11234724 39.19753783 82.24610937 36.2890625 75.078125 C34.90645056 71.77661527 33.40297916 68.54910609 31.875 65.3125 C29.85853754 61.00179709 28.16270533 56.76431219 26.77294922 52.21801758 C25.98046606 49.94394636 25.01097651 47.88062147 23.9140625 45.73828125 C23.55521973 45.03356689 23.19637695 44.32885254 22.82666016 43.6027832 C22.5538623 43.07386475 22.28106445 42.54494629 22 42 C21.99191315 42.61974197 21.98382629 43.23948395 21.97549438 43.87800598 C21.88955481 50.31805228 21.79005598 56.75778699 21.68261719 63.19750977 C21.64429218 65.60207901 21.60944559 68.00670628 21.578125 70.41137695 C21.53255118 73.86430628 21.4745437 77.3168349 21.4140625 80.76953125 C21.39673569 82.38683891 21.39673569 82.38683891 21.37905884 84.03681946 C21.35918915 85.03763046 21.33931946 86.03844147 21.31884766 87.06958008 C21.30552399 87.95116287 21.29220032 88.83274567 21.2784729 89.74104309 C21 92 21 92 19 95 C16.08669922 95.24869641 13.40579705 95.32634278 10.5 95.25 C9.71496094 95.24484375 8.92992187 95.2396875 8.12109375 95.234375 C2.30924824 95.15462412 2.30924824 95.15462412 0 94 C0 62.98 0 31.96 0 0 Z " fill="#F2F2F2" transform="translate(249,138)"/>
<path d="M0 0 C10.56 0 21.12 0 32 0 C33.32 2.97 34.64 5.94 36 9 C37.15189431 10.88782678 38.30660591 12.7745995 39.51171875 14.62890625 C41.8229598 18.31111969 43.93306068 22.10913369 46.05761719 25.90112305 C47.65792001 28.73602513 49.3185918 31.4778877 51.125 34.1875 C52.60141614 36.40212421 53.81981786 38.47481623 54.9375 40.875 C56.34115375 43.78959313 57.89769798 46.52552663 59.62890625 49.2578125 C60.07435791 49.96309082 60.51980957 50.66836914 60.97875977 51.39501953 C61.31576904 51.92466309 61.65277832 52.45430664 62 53 C62.01030746 52.35076065 62.02061493 51.7015213 62.03123474 51.03260803 C62.13906136 44.30100948 62.25367781 37.5695513 62.37231445 30.83813477 C62.41574006 28.32286504 62.45740929 25.80756437 62.49731445 23.29223633 C62.55483293 19.68561456 62.61857967 16.07914969 62.68359375 12.47265625 C62.70030624 11.34038101 62.71701874 10.20810577 62.73423767 9.04151917 C62.75418289 8.00051559 62.77412811 6.95951202 62.79467773 5.88696289 C62.81022202 4.96540909 62.8257663 4.04385529 62.84178162 3.09437561 C63 1 63 1 64 0 C70.6 0 77.2 0 84 0 C84 31.02 84 62.04 84 94 C79.78493101 96.1075345 74.48139489 95.55374652 69.84350586 95.6796875 C67.83580726 95.74919311 65.83062819 95.88206005 63.82617188 96.015625 C54.3133462 96.24612254 54.3133462 96.24612254 50.54833984 92.67382812 C47.64885424 88.26275883 45.81890495 84.2271544 45 79 C44.01 78.67 43.02 78.34 42 78 C40.640625 75.734375 40.640625 75.734375 39.25 72.75 C34.79366028 63.47331261 30.24924455 54.33051661 24.1640625 46 C22.81677218 43.68519247 22.39329102 41.63413521 22 39 C21.34 39 20.68 39 20 39 C20.00222061 39.68682358 20.00444122 40.37364716 20.00672913 41.08128357 C20.02877895 48.20205162 20.04390533 55.32281004 20.05493164 62.44360352 C20.05997383 65.10441481 20.06680736 67.76522332 20.07543945 70.42602539 C20.08751009 74.24105516 20.09322929 78.05604844 20.09765625 81.87109375 C20.10281754 83.06899033 20.10797882 84.2668869 20.11329651 85.50108337 C20.11340981 87.15268211 20.11340981 87.15268211 20.11352539 88.83764648 C20.115746 89.81249496 20.11796661 90.78734344 20.12025452 91.79173279 C20 94 20 94 19 95 C16.00981839 95.12667764 13.05305892 95.18520838 10.0625 95.1875 C8.80663086 95.20586914 8.80663086 95.20586914 7.52539062 95.22460938 C6.72423828 95.22654297 5.92308594 95.22847656 5.09765625 95.23046875 C4.36039307 95.23457764 3.62312988 95.23868652 2.86352539 95.24291992 C1 95 1 95 -1 93 C-1.19349959 90.11848862 -1.26218855 87.33343754 -1.24291992 84.45117188 C-1.24481827 83.56651749 -1.24671661 82.6818631 -1.24867249 81.770401 C-1.25238724 78.83642813 -1.24166609 75.90270099 -1.23046875 72.96875 C-1.22927722 70.93615752 -1.22882373 68.90356449 -1.2290802 66.87097168 C-1.22751412 62.60714277 -1.219215 58.34339767 -1.20581055 54.07958984 C-1.18882055 48.60484305 -1.18499614 43.13018846 -1.18575573 37.6554184 C-1.18548423 33.45708327 -1.18000626 29.25876845 -1.17275429 25.06044006 C-1.16956451 23.0413478 -1.16759949 21.02225322 -1.16686058 19.00315857 C-1.16470029 16.1850083 -1.15596277 13.3669572 -1.14526367 10.54882812 C-1.14571686 9.70824356 -1.14617004 8.867659 -1.14663696 8.00160217 C-1.11447662 2.22895324 -1.11447662 2.22895324 0 0 Z " fill="#EFEFEF" transform="translate(469,138)"/>
<path d="M0 0 C22.77 0 45.54 0 69 0 C70 14 70 14 69 19 C55.8 19.33 42.6 19.66 29 20 C29 25.61 29 31.22 29 37 C32.66416016 37.09087891 32.66416016 37.09087891 36.40234375 37.18359375 C38.75874063 37.24533798 41.1150873 37.30874433 43.47143555 37.37231445 C45.11364303 37.41572297 46.75589739 37.45739358 48.39819336 37.49731445 C50.75388745 37.5548744 53.10934428 37.61860892 55.46484375 37.68359375 C56.20339096 37.70030624 56.94193817 37.71701874 57.7028656 37.73423767 C62.88612829 37.88612829 62.88612829 37.88612829 64 39 C64.09932392 41.31074168 64.12969618 43.62462942 64.125 45.9375 C64.12886719 47.83822266 64.12886719 47.83822266 64.1328125 49.77734375 C64 53 64 53 63 55 C51.78 55.33 40.56 55.66 29 56 C29 61.94 29 67.88 29 74 C33.31384766 74.09087891 33.31384766 74.09087891 37.71484375 74.18359375 C40.48822799 74.24533303 43.26156937 74.30874145 46.03491211 74.37231445 C47.96814185 74.41573041 49.90141159 74.45740042 51.8347168 74.49731445 C54.60738202 74.55485631 57.37984457 74.6185962 60.15234375 74.68359375 C61.02213364 74.70030624 61.89192352 74.71701874 62.78807068 74.73423767 C68.88612829 74.88612829 68.88612829 74.88612829 70 76 C70.08631874 77.34267413 70.10706473 78.68974322 70.09765625 80.03515625 C70.09282227 81.24848633 70.09282227 81.24848633 70.08789062 82.48632812 C70.07532227 83.7615332 70.07532227 83.7615332 70.0625 85.0625 C70.05798828 85.91650391 70.05347656 86.77050781 70.04882812 87.65039062 C70.03700373 89.76695663 70.01906769 91.88348685 70 94 C67.19733592 95.40133204 64.88114662 95.12724805 61.74609375 95.12939453 C59.77394897 95.13412277 59.77394897 95.13412277 57.76196289 95.13894653 C56.32047492 95.1371567 54.87898726 95.13510573 53.4375 95.1328125 C51.96541325 95.13348584 50.4933266 95.13445611 49.02124023 95.13571167 C45.9343968 95.13718723 42.84758227 95.13503862 39.76074219 95.13037109 C35.79934894 95.12467388 31.83802345 95.12795364 27.87663269 95.13394356 C24.83637988 95.13755298 21.79614319 95.13640882 18.75588989 95.13381577 C17.29501335 95.13314755 15.83413535 95.13397124 14.3732605 95.13629532 C12.33347602 95.13882803 10.29368643 95.13428493 8.25390625 95.12939453 C7.09189697 95.12859894 5.9298877 95.12780334 4.73266602 95.12698364 C2 95 2 95 0 94 C0 62.98 0 31.96 0 0 Z " fill="#EEEEEE" transform="translate(384,138)"/>
<path d="M0 0 C8.71844003 -0.02312611 17.43686956 -0.04091646 26.15533352 -0.05181217 C30.20325742 -0.05704041 34.25116041 -0.06413699 38.29907227 -0.07543945 C42.20235971 -0.08627043 46.10562699 -0.09227728 50.0089283 -0.09487724 C51.50133647 -0.09673111 52.99374348 -0.100351 54.48614311 -0.10573006 C56.56948139 -0.11294331 58.65273531 -0.11399083 60.73608398 -0.11352539 C61.92411118 -0.115746 63.11213837 -0.11796661 64.33616638 -0.12025452 C67 0 67 0 68 1 C68.10002455 3.65653443 68.13877463 6.28129272 68.125 8.9375 C68.12886719 9.67935547 68.13273437 10.42121094 68.13671875 11.18554688 C68.12663501 16.74672998 68.12663501 16.74672998 67 19 C53.8 19 40.6 19 27 19 C27 25.27 27 31.54 27 38 C29.51496094 37.98839844 32.02992188 37.97679687 34.62109375 37.96484375 C37.0469551 37.95705327 39.47281507 37.95097646 41.89868164 37.94506836 C43.58944316 37.9400281 45.28020029 37.93319595 46.97094727 37.92456055 C49.39600707 37.91248143 51.82100944 37.90676877 54.24609375 37.90234375 C55.38672523 37.89460182 55.38672523 37.89460182 56.55039978 37.88670349 C58.3673257 37.88650762 60.18413127 37.93802723 62 38 C63.75559942 39.75559942 63.13221919 42.03582442 63.13671875 44.37109375 C63.13285156 45.07363281 63.12898438 45.77617187 63.125 46.5 C63.13080078 47.55380859 63.13080078 47.55380859 63.13671875 48.62890625 C63.12661378 53.87338622 63.12661378 53.87338622 62 55 C59.40640678 55.08851529 56.83960309 55.11525945 54.24609375 55.09765625 C53.47064713 55.0962413 52.6952005 55.09482635 51.89625549 55.09336853 C49.40996506 55.08775345 46.9237634 55.07519846 44.4375 55.0625 C42.75586067 55.05748694 41.07421994 55.0529237 39.39257812 55.04882812 C35.26165671 55.03862832 31.13092818 55.01905605 27 55 C27 61.6 27 68.2 27 75 C40.53 75 54.06 75 68 75 C69.50930882 78.01861764 69.18438844 81.12991303 69.1875 84.4375 C69.19974609 85.11876953 69.21199219 85.80003906 69.22460938 86.50195312 C69.23555848 90.22829809 69.12005619 91.81991571 67 95 C64.26060486 95.36749268 64.26060486 95.36749268 60.73022461 95.35644531 C58.7532383 95.36094696 58.7532383 95.36094696 56.73631287 95.36553955 C55.29165254 95.35353472 53.84699612 95.34105177 52.40234375 95.328125 C50.92786349 95.3250684 49.45338034 95.32319152 47.97889709 95.32244873 C44.88775598 95.31784281 41.79687497 95.30340501 38.70581055 95.28125 C34.73533629 95.25294256 30.76506688 95.24203645 26.7945013 95.2375679 C23.74998407 95.2334196 20.70550862 95.22360749 17.66101265 95.21169281 C16.196522 95.20597946 14.73202731 95.2012243 13.26753044 95.19742584 C11.22512288 95.19058291 9.18274536 95.1760564 7.14038086 95.16113281 C5.97615097 95.15430481 4.81192108 95.14747681 3.6124115 95.14044189 C1 95 1 95 0 94 C-0.09525367 91.07805335 -0.12552736 88.17979671 -0.11352539 85.25756836 C-0.11367142 84.3405867 -0.11381744 83.42360504 -0.1139679 82.47883606 C-0.1132684 79.43248164 -0.10547428 76.38618755 -0.09765625 73.33984375 C-0.0957922 71.23377007 -0.09436824 69.12769597 -0.09336853 67.0216217 C-0.08954231 61.46657117 -0.07971114 55.91154659 -0.06866455 50.35650635 C-0.05845267 44.6927526 -0.05387139 39.02899467 -0.04882812 33.36523438 C-0.03808896 22.24347815 -0.0210113 11.12174123 0 0 Z " fill="#F3F3F3" transform="translate(165,138)"/>
<path d="M0 0 C0.82991455 0.07839111 1.6598291 0.15678223 2.51489258 0.23754883 C3.29630615 0.32157959 4.07771973 0.40561035 4.8828125 0.4921875 C5.92912842 0.60216064 5.92912842 0.60216064 6.99658203 0.71435547 C8.875 1.125 8.875 1.125 11.875 3.125 C12.23144531 4.98852539 12.23144531 4.98852539 12.203125 7.22265625 C12.19796875 8.02380859 12.1928125 8.82496094 12.1875 9.65039062 C12.166875 10.48763672 12.14625 11.32488281 12.125 12.1875 C12.11984375 13.02861328 12.1146875 13.86972656 12.109375 14.73632812 C12.02899235 20.97100765 12.02899235 20.97100765 10.875 22.125 C5.49352724 21.76623515 0.48891732 20.83895676 -4.75 19.5625 C-11.78227195 17.89243774 -17.32280355 17.2529615 -24.125 20.125 C-26.42666675 21.64053153 -26.42666675 21.64053153 -28.125 23.125 C-27.87744492 25.06902838 -27.87744492 25.06902838 -27.125 27.125 C-24.58524796 28.64056299 -22.17552684 29.90408223 -19.5 31.125 C-18.09019727 31.78965838 -16.68133447 32.45631424 -15.2734375 33.125 C-14.57702148 33.45242187 -13.88060547 33.77984375 -13.16308594 34.1171875 C-11.20939268 35.08326869 -9.34944676 36.13678316 -7.4765625 37.25 C-4.27402213 39.18874463 -4.27402213 39.18874463 -1.10546875 40.0859375 C5.36625242 42.34213387 12.08962877 47.66132593 16.3828125 53 C19.95028482 60.75838641 18.9811105 73.23318568 16.125 81 C14.94442968 83.76403368 14.34342746 84.84975613 11.734375 86.3828125 C10.81398438 86.75019531 10.81398438 86.75019531 9.875 87.125 C9.875 87.785 9.875 88.445 9.875 89.125 C-9.40200024 99.30679762 -29.05229411 100.69330289 -50.125 95.125 C-51.445 94.465 -52.765 93.805 -54.125 93.125 C-54.125 86.855 -54.125 80.585 -54.125 74.125 C-49.57591365 72.98772841 -48.47186978 73.52012688 -44.1875 75.0625 C-37.7011409 77.03779798 -31.76947704 77.51458059 -25 77.5 C-24.08742432 77.5012085 -23.17484863 77.50241699 -22.23461914 77.50366211 C-16.38737531 77.4651197 -16.38737531 77.4651197 -11.125 75.125 C-10.04276634 72.21495097 -10.04276634 72.21495097 -10.125 69.125 C-13.9324166 64.5209547 -19.60335333 61.45663575 -25.25 59.75 C-29.46032252 58.46127519 -33.37015636 56.69267919 -37.3125 54.75 C-38.46105469 54.18539062 -39.60960937 53.62078125 -40.79296875 53.0390625 C-45.75231396 50.19020066 -49.96448289 47.06393011 -52.9375 42.0625 C-53.33582031 41.41152344 -53.73414063 40.76054687 -54.14453125 40.08984375 C-57.17804892 34.01072267 -57.1502052 26.03508495 -55.453125 19.5625 C-54.75506288 17.71856231 -53.95123533 15.91517655 -53.125 14.125 C-52.465 14.125 -51.805 14.125 -51.125 14.125 C-50.8671875 13.53847656 -50.609375 12.95195312 -50.34375 12.34765625 C-47.29012913 6.77871305 -42.10722633 3.12406164 -36.125 1.25 C-24.12943281 -1.71703711 -12.20995026 -1.2077045 0 0 Z " fill="#EFEFEF" transform="translate(624.125,136.875)"/>
<path d="M0 0 C0.83877686 0.07831055 1.67755371 0.15662109 2.54174805 0.23730469 C8.57158926 0.88408926 8.57158926 0.88408926 10.8125 3.125 C11.03955078 5.09619141 11.03955078 5.09619141 11.0078125 7.4765625 C11.00136719 8.32734375 10.99492188 9.178125 10.98828125 10.0546875 C10.96314453 11.38886719 10.96314453 11.38886719 10.9375 12.75 C10.92847656 13.6471875 10.91945313 14.544375 10.91015625 15.46875 C10.8865497 17.68776586 10.8536231 19.90625077 10.8125 22.125 C5.42600181 21.74574385 0.43974055 21.11649011 -4.75 19.5625 C-13.81667148 16.98659615 -19.85290296 17.71140724 -28.1875 22.125 C-28.12990082 24.53323048 -28.12990082 24.53323048 -27.1875 27.125 C-24.65519615 28.9377245 -24.65519615 28.9377245 -21.5 30.25 C-19.94732422 30.96542969 -19.94732422 30.96542969 -18.36328125 31.6953125 C-17.31527344 32.16710937 -16.26726562 32.63890625 -15.1875 33.125 C-12.26416381 34.55316786 -9.44613316 35.96335427 -6.6875 37.6875 C-4.22627472 39.23481753 -4.22627472 39.23481753 -1.375 39.9375 C2.30489626 41.30844175 4.87006132 43.20179156 7.92578125 45.62890625 C9.90753175 47.24521396 9.90753175 47.24521396 12.5625 48.9375 C17.88848955 54.1155454 19.07842267 59.91106129 19.25 67.1875 C19.06596004 72.70869869 18.62628959 77.32308881 15.8125 82.125 C15.29623047 83.01058594 15.29623047 83.01058594 14.76953125 83.9140625 C9.62182258 91.10501553 -0.47953298 95.46732194 -8.875 97.5625 C-23.0631806 99.65583812 -41.16454961 99.6364752 -54.1875 93.125 C-54.1875 86.855 -54.1875 80.585 -54.1875 74.125 C-49.68942996 73.00048249 -48.98761425 73.40966315 -44.875 75.0625 C-38.24235166 77.24558882 -32.02392775 77.54572026 -25.0625 77.5625 C-24.04244873 77.5720874 -23.02239746 77.5816748 -21.97143555 77.59155273 C-21.00890869 77.58067627 -20.04638184 77.5697998 -19.0546875 77.55859375 C-17.75700439 77.54397095 -17.75700439 77.54397095 -16.43310547 77.52905273 C-13.72882286 77.04247003 -12.85919292 76.26257992 -11.1875 74.125 C-10.17144631 71.70210274 -9.996997 70.63742252 -10.91796875 68.16015625 C-12.44346224 65.71467285 -13.78798066 64.86341637 -16.3125 63.5 C-17.03695312 63.09523437 -17.76140625 62.69046875 -18.5078125 62.2734375 C-21.3235908 61.06667537 -24.1262327 60.42443116 -27.10009766 59.72363281 C-30.58616895 58.72388465 -33.64795591 57.05562543 -36.8125 55.3125 C-37.75609375 54.8165332 -37.75609375 54.8165332 -38.71875 54.31054688 C-49.44430103 48.51385384 -49.44430103 48.51385384 -51.0625 43.3125 C-51.10375 42.590625 -51.145 41.86875 -51.1875 41.125 C-51.8475 41.125 -52.5075 41.125 -53.1875 41.125 C-56.3804375 32.80893114 -57.50542417 25.4211872 -53.84375 17.0546875 C-50.11312849 10.05062849 -50.11312849 10.05062849 -47.1875 7.125 C-46.1975 7.125 -45.2075 7.125 -44.1875 7.125 C-44.1875 6.465 -44.1875 5.805 -44.1875 5.125 C-31.92894834 -3.63110833 -14.23628781 -1.38162006 0 0 Z " fill="#F1F1F1" transform="translate(83.1875,136.875)"/>
<path d="M0 0 C8.91 0 17.82 0 27 0 C27.02254946 12.23880658 27.04091418 24.47759947 27.05181217 36.71642208 C27.05704139 42.39876512 27.06413973 48.08109327 27.07543945 53.76342773 C27.08626696 59.24229136 27.09227654 64.72114062 27.09487724 70.20001411 C27.09673174 72.29529611 27.10035282 74.39057728 27.10573006 76.4858532 C27.11293868 79.40977584 27.11399102 82.33363833 27.11352539 85.25756836 C27.11712067 86.1329425 27.12071594 87.00831665 27.12442017 87.91021729 C27.11405216 93.88594784 27.11405216 93.88594784 26 95 C24.24314326 95.09949077 22.48232667 95.1308026 20.72265625 95.1328125 C19.65208984 95.13410156 18.58152344 95.13539063 17.47851562 95.13671875 C16.35123047 95.13285156 15.22394531 95.12898438 14.0625 95.125 C12.93908203 95.12886719 11.81566406 95.13273437 10.65820312 95.13671875 C9.58634766 95.13542969 8.51449219 95.13414062 7.41015625 95.1328125 C5.92721069 95.13112061 5.92721069 95.13112061 4.41430664 95.12939453 C2 95 2 95 0 94 C0 62.98 0 31.96 0 0 Z " fill="#F0F0F0" transform="translate(116,138)"/>
<path d="M0 0 C5.94 0 11.88 0 18 0 C17.67 0.99 17.34 1.98 17 3 C11.72 3 6.44 3 1 3 C0.67 2.01 0.34 1.02 0 0 Z " fill="#A7A7A7" transform="translate(294,231)"/>
<path d="M0 0 C2.00720923 0.28674418 4.0085944 0.61866701 6 1 C4.68 1.99 3.36 2.98 2 4 C2 3.34 2 2.68 2 2 C1.34 2 0.68 2 0 2 C0 7.94 0 13.88 0 20 C-0.33 20 -0.66 20 -1 20 C-1.02888514 16.85418577 -1.04675923 13.70840531 -1.0625 10.5625 C-1.07087891 9.66466797 -1.07925781 8.76683594 -1.08789062 7.84179688 C-1.09111328 6.98779297 -1.09433594 6.13378906 -1.09765625 5.25390625 C-1.10551147 4.06776733 -1.10551147 4.06776733 -1.11352539 2.85766602 C-1 1 -1 1 0 0 Z " fill="#7B7B7B" transform="translate(30,210)"/>
<path d="M0 0 C0.33 0 0.66 0 1 0 C1.0544452 2.20805524 1.09299283 4.41650554 1.125 6.625 C1.14820312 7.85476562 1.17140625 9.08453125 1.1953125 10.3515625 C1.0030428 13.94316041 0.30258556 16.66661175 -1 20 C-3.23986287 13.2804114 -1.51151156 6.70733256 0 0 Z " fill="#B3B3B3" transform="translate(101,197)"/>
<path d="M0 0 C0 0.66 0 1.32 0 2 C-3.19026533 4.32019297 -6.41726669 6.34643078 -10 8 C-9.25 6.0625 -9.25 6.0625 -8 4 C-5.875 3.25 -5.875 3.25 -4 3 C-4 2.34 -4 1.68 -4 1 C-2 0 -2 0 0 0 Z " fill="#929292" transform="translate(43,141)"/>
<path d="M0 0 C0.33 0 0.66 0 1 0 C2.32286246 4.96073422 2.08893197 9.91111512 2 15 C1.67 15 1.34 15 1 15 C0.63536268 13.25215171 0.2836922 11.50159498 -0.0625 9.75 C-0.25972656 8.77546875 -0.45695312 7.8009375 -0.66015625 6.796875 C-0.98397535 4.131881 -0.85503199 2.51128277 0 0 Z " fill="#C5C5C5" transform="translate(337,174)"/>
</svg>
