<svg xmlns="http://www.w3.org/2000/svg" viewBox="0 0 200 200">
<rect x="0" y="0" width="200" height="200" rx="14" fill="#0d1b3a"/>
<rect x="1" y="1" width="198" height="198" rx="13" fill="none" stroke="#4fd7ff" stroke-opacity="0.45" stroke-width="1" stroke-dasharray="5 5"/>
<rect x="16" y="16" width="7" height="7" rx="1.5" fill="#9fe8ff" fill-opacity="0.85"/>
<rect x="16" y="24" width="7" height="7" rx="1.5" fill="#9fe8ff" fill-opacity="0.85"/>
<rect x="16" y="32" width="7" height="7" rx="1.5" fill="#9fe8ff" fill-opacity="0.85"/>
<rect x="16" y="40" width="7" height="7" rx="1.5" fill="#9fe8ff" fill-opacity="0.85"/>
<rect x="16" y="48" width="7" height="7" rx="1.5" fill="#9fe8ff" fill-opacity="0.85"/>
<rect x="16" y="56" width="7" height="7" rx="1.5" fill="#9fe8ff" fill-opacity="0.85"/>
<rect x="16" y="64" width="7" height="7" rx="1.5" fill="#9fe8ff" fill-opacity="0.85"/>
<rect x="16" y="88" width="7" height="7" rx="1.5" fill="#9fe8ff" fill-opacity="0.85"/>
<rect x="16" y="96" width="7" height="7" rx="1.5" fill="#9fe8ff" fill-opacity="0.85"/>
<rect x="16" y="112" width="7" height="7" rx="1.5" fill="#9fe8ff" fill-opacity="0.85"/>
<rect x="16" y="128" width="7" height="7" rx="1.5" fill="#9fe8ff" fill-opacity="0.85"/>
<rect x="16" y="136" width="7" height="7" rx="1.5" fill="#9fe8ff" fill-opacity="0.85"/>
<rect x="16" y="144" width="7" height="7" rx="1.5" fill="#9fe8ff" fill-opacity="0.85"/>
<rect x="16" y="152" width="7" height="7" rx="1.5" fill="#9fe8ff" fill-opacity="0.85"/>
<rect x="16" y="160" width="7" height="7" rx="1.5" fill="#9fe8ff" fill-opacity="0.85"/>
<rect x="16" y="168" width="7" height="7" rx="1.5" fill="#9fe8ff" fill-opacity="0.85"/>
<rect x="16" y="176" width="7" height="7" rx="1.5" fill="#9fe8ff" fill-opacity="0.85"/>
<rect x="24" y="16" width="7" height="7" rx="1.5" fill="#9fe8ff" fill-opacity="0.85"/>
<rect x="24" y="64" width="7" height="7" rx="1.5" fill="#9fe8ff" fill-opacity="0.85"/>
<rect x="24" y="80" width="7" height="7" rx="1.5" fill="#9fe8ff" fill-opacity="0.85"/>
<rect x="24" y="112" width="7" height="7" rx="1.5" fill="#9fe8ff" fill-opacity="0.85"/>
<rect x="24" y="128" width="7" height="7" rx="1.5" fill="#9fe8ff" fill-opacity="0.85"/>
<rect x="24" y="176" width="7" height="7" rx="1.5" fill="#9fe8ff" fill-opacity="0.85"/>
<rect x="32" y="16" width="7" height="7" rx="1.5" fill="#9fe8ff" fill-opacity="0.85"/>
<rect x="32" y="32" width="7" height="7" rx="1.5" fill="#9fe8ff" fill-opacity="0.85"/>
<rect x="32" y="40" width="7" height="7" rx="1.5" fill="#9fe8ff" fill-opacity="0.85"/>
<rect x="32" y="48" width="7" height="7" rx="1.5" fill="#9fe8ff" fill-opacity="0.85"/>
<rect x="32" y="64" width="7" height="7" rx="1.5" fill="#9fe8ff" fill-opacity="0.85"/>
<rect x="32" y="96" width="7" height="7" rx="1.5" fill="#9fe8ff" fill-opacity="0.85"/>
<rect x="32" y="104" width="7" height="7" rx="1.5" fill="#9fe8ff" fill-opacity="0.85"/>
<rect x="32" y="112" width="7" height="7" rx="1.5" fill="#9fe8ff" fill-opacity="0.85"/>
<rect x="32" y="128" width="7" height="7" rx="1.5" fill="#9fe8ff" fill-opacity="0.85"/>
<rect x="32" y="144" width="7" height="7" rx="1.5" fill="#9fe8ff" fill-opacity="0.85"/>
<rect x="32" y="152" width="7" height="7" rx="1.5" fill="#9fe8ff" fill-opacity="0.85"/>
<rect x="32" y="160" width="7" height="7" rx="1.5" fill="#9fe8ff" fill-opacity="0.85"/>
<rect x="32" y="176" width="7" height="7" rx="1.5" fill="#9fe8ff" fill-opacity="0.85"/>
<rect x="40" y="16" width="7" height="7" rx="1.5" fill="#9fe8ff" fill-opacity="0.85"/>
<rect x="40" y="32" width="7" height="7" rx="1.5" fill="#9fe8ff" fill-opacity="0.85"/>
<rect x="40" y="40" width="7" height="7" rx="1.5" fill="#9fe8ff" fill-opacity="0.85"/>
<rect x="40" y="48" width="7" height="7" rx="1.5" fill="#9fe8ff" fill-opacity="0.85"/>
<rect x="40" y="64" width="7" height="7" rx="1.5" fill="#9fe8ff" fill-opacity="0.85"/>
<rect x="40" y="96" width="7" height="7" rx="1.5" fill="#9fe8ff" fill-opacity="0.85"/>
<rect x="40" y="104" width="7" height="7" rx="1.5" fill="#9fe8ff" fill-opacity="0.85"/>
<rect x="40" y="112" width="7" height="7" rx="1.5" fill="#9fe8ff" fill-opacity="0.85"/>
<rect x="40" y="128" width="7" height="7" rx="1.5" fill="#9fe8ff" fill-opacity="0.85"/>
<rect x="40" y="144" width="7" height="7" rx="1.5" fill="#9fe8ff" fill-opacity="0.85"/>
<rect x="40" y="152" width="7" height="7" rx="1.5" fill="#9fe8ff" fill-opacity="0.85"/>
<rect x="40" y="160" width="7" height="7" rx="1.5" fill="#9fe8ff" fill-opacity="0.85"/>
<rect x="40" y="176" width="7" height="7" rx="1.5" fill="#9fe8ff" fill-opacity="0.85"/>
<rect x="48" y="16" width="7" height="7" rx="1.5" fill="#9fe8ff" fill-opacity="0.85"/>
<rect x="48" y="32" width="7" height="7" rx="1.5" fill="#9fe8ff" fill-opacity="0.85"/>
<rect x="48" y="40" width="7" height="7" rx="1.5" fill="#9fe8ff" fill-opacity="0.85"/>
<rect x="48" y="48" width="7" height="7" rx="1.5" fill="#9fe8ff" fill-opacity="0.85"/>
<rect x="48" y="64" width="7" height="7" rx="1.5" fill="#9fe8ff" fill-opacity="0.85"/>
<rect x="48" y="80" width="7" height="7" rx="1.5" fill="#9fe8ff" fill-opacity="0.85"/>
<rect x="48" y="96" width="7" height="7" rx="1.5" fill="#9fe8ff" fill-opacity="0.85"/>
<rect x="48" y="104" width="7" height="7" rx="1.5" fill="#9fe8ff" fill-opacity="0.85"/>
<rect x="48" y="112" width="7" height="7" rx="1.5" fill="#9fe8ff" fill-opacity="0.85"/>
<rect x="48" y="128" width="7" height="7" rx="1.5" fill="#9fe8ff" fill-opacity="0.85"/>
<rect x="48" y="144" width="7" height="7" rx="1.5" fill="#9fe8ff" fill-opacity="0.85"/>
<rect x="48" y="152" width="7" height="7" rx="1.5" fill="#9fe8ff" fill-opacity="0.85"/>
<rect x="48" y="160" width="7" height="7" rx="1.5" fill="#9fe8ff" fill-opacity="0.85"/>
<rect x="48" y="176" width="7" height="7" rx="1.5" fill="#9fe8ff" fill-opacity="0.85"/>
<rect x="56" y="16" width="7" height="7" rx="1.5" fill="#9fe8ff" fill-opacity="0.85"/>
<rect x="56" y="64" width="7" height="7" rx="1.5" fill="#9fe8ff" fill-opacity="0.85"/>
<rect x="56" y="104" width="7" height="7" rx="1.5" fill="#9fe8ff" fill-opacity="0.85"/>
<rect x="56" y="112" width="7" height="7" rx="1.5" fill="#9fe8ff" fill-opacity="0.85"/>
<rect x="56" y="128" width="7" height="7" rx="1.5" fill="#9fe8ff" fill-opacity="0.85"/>
<rect x="56" y="176" width="7" height="7" rx="1.5" fill="#9fe8ff" fill-opacity="0.85"/>
<rect x="64" y="16" width="7" height="7" rx="1.5" fill="#9fe8ff" fill-opacity="0.85"/>
<rect x="64" y="24" width="7" height="7" rx="1.5" fill="#9fe8ff" fill-opacity="0.85"/>
<rect x="64" y="32" width="7" height="7" rx="1.5" fill="#9fe8ff" fill-opacity="0.85"/>
<rect x="64" y="40" width="7" height="7" rx="1.5" fill="#9fe8ff" fill-opacity="0.85"/>
<rect x="64" y="48" width="7" height="7" rx="1.5" fill="#9fe8ff" fill-opacity="0.85"/>
<rect x="64" y="56" width="7" height="7" rx="1.5" fill="#9fe8ff" fill-opacity="0.85"/>
<rect x="64" y="64" width="7" height="7" rx="1.5" fill="#9fe8ff" fill-opacity="0.85"/>
<rect x="64" y="96" width="7" height="7" rx="1.5" fill="#9fe8ff" fill-opacity="0.85"/>
<rect x="64" y="112" width="7" height="7" rx="1.5" fill="#9fe8ff" fill-opacity="0.85"/>
<rect x="64" y="128" width="7" height="7" rx="1.5" fill="#9fe8ff" fill-opacity="0.85"/>
<rect x="64" y="136" width="7" height="7" rx="1.5" fill="#9fe8ff" fill-opacity="0.85"/>
<rect x="64" y="144" width="7" height="7" rx="1.5" fill="#9fe8ff" fill-opacity="0.85"/>
<rect x="64" y="152" width="7" height="7" rx="1.5" fill="#9fe8ff" fill-opacity="0.85"/>
<rect x="64" y="160" width="7" height="7" rx="1.5" fill="#9fe8ff" fill-opacity="0.85"/>
<rect x="64" y="168" width="7" height="7" rx="1.5" fill="#9fe8ff" fill-opacity="0.85"/>
<rect x="64" y="176" width="7" height="7" rx="1.5" fill="#9fe8ff" fill-opacity="0.85"/>
<rect x="72" y="112" width="7" height="7" rx="1.5" fill="#9fe8ff" fill-opacity="0.85"/>
<rect x="80" y="16" width="7" height="7" rx="1.5" fill="#9fe8ff" fill-opacity="0.85"/>
<rect x="80" y="24" width="7" height="7" rx="1.5" fill="#9fe8ff" fill-opacity="0.85"/>
<rect x="80" y="32" width="7" height="7" rx="1.5" fill="#9fe8ff" fill-opacity="0.85"/>
<rect x="80" y="40" width="7" height="7" rx="1.5" fill="#9fe8ff" fill-opacity="0.85"/>
<rect x="80" y="56" width="7" height="7" rx="1.5" fill="#9fe8ff" fill-opacity="0.85"/>
<rect x="80" y="72" width="7" height="7" rx="1.5" fill="#9fe8ff" fill-opacity="0.85"/>
<rect x="80" y="112" width="7" height="7" rx="1.5" fill="#9fe8ff" fill-opacity="0.85"/>
<rect x="80" y="176" width="7" height="7" rx="1.5" fill="#9fe8ff" fill-opacity="0.85"/>
<rect x="88" y="16" width="7" height="7" rx="1.5" fill="#9fe8ff" fill-opacity="0.85"/>
<rect x="88" y="24" width="7" height="7" rx="1.5" fill="#9fe8ff" fill-opacity="0.85"/>
<rect x="88" y="32" width="7" height="7" rx="1.5" fill="#9fe8ff" fill-opacity="0.85"/>
<rect x="88" y="48" width="7" height="7" rx="1.5" fill="#9fe8ff" fill-opacity="0.85"/>
<rect x="88" y="56" width="7" height="7" rx="1.5" fill="#9fe8ff" fill-opacity="0.85"/>
<rect x="88" y="64" width="7" height="7" rx="1.5" fill="#9fe8ff" fill-opacity="0.85"/>
<rect x="88" y="80" width="7" height="7" rx="1.5" fill="#9fe8ff" fill-opacity="0.85"/>
<rect x="88" y="88" width="7" height="7" rx="1.5" fill="#9fe8ff" fill-opacity="0.85"/>
<rect x="88" y="112" width="7" height="7" rx="1.5" fill="#9fe8ff" fill-opacity="0.85"/>
<rect x="88" y="120" width="7" height="7" rx="1.5" fill="#9fe8ff" fill-opacity="0.85"/>
<rect x="88" y="160" width="7" height="7" rx="1.5" fill="#9fe8ff" fill-opacity="0.85"/>
<rect x="88" y="168" width="7" height="7" rx="1.5" fill="#9fe8ff" fill-opacity="0.85"/>
<rect x="88" y="176" width="7" height="7" rx="1.5" fill="#9fe8ff" fill-opacity="0.85"/>
<rect x="96" y="112" width="7" height="7" rx="1.5" fill="#9fe8ff" fill-opacity="0.85"/>
<rect x="96" y="120" width="7" height="7" rx="1.5" fill="#9fe8ff" fill-opacity="0.85"/>
<rect x="96" y="160" width="7" height="7" rx="1.5" fill="#9fe8ff" fill-opacity="0.85"/>
<rect x="96" y="176" width="7" height="7" rx="1.5" fill="#9fe8ff" fill-opacity="0.85"/>
<rect x="104" y="16" width="7" height="7" rx="1.5" fill="#9fe8ff" fill-opacity="0.85"/>
<rect x="104" y="24" width="7" height="7" rx="1.5" fill="#9fe8ff" fill-opacity="0.85"/>
<rect x="104" y="48" width="7" height="7" rx="1.5" fill="#9fe8ff" fill-opacity="0.85"/>
<rect x="104" y="56" width="7" height="7" rx="1.5" fill="#9fe8ff" fill-opacity="0.85"/>
<rect x="104" y="64" width="7" height="7" rx="1.5" fill="#9fe8ff" fill-opacity="0.85"/>
<rect x="104" y="72" width="7" height="7" rx="1.5" fill="#9fe8ff" fill-opacity="0.85"/>
<rect x="104" y="80" width="7" height="7" rx="1.5" fill="#9fe8ff" fill-opacity="0.85"/>
<rect x="104" y="120" width="7" height="7" rx="1.5" fill="#9fe8ff" fill-opacity="0.85"/>
<rect x="104" y="152" width="7" height="7" rx="1.5" fill="#9fe8ff" fill-opacity="0.85"/>
<rect x="104" y="168" width="7" height="7" rx="1.5" fill="#9fe8ff" fill-opacity="0.85"/>
<rect x="112" y="32" width="7" height="7" rx="1.5" fill="#9fe8ff" fill-opacity="0.85"/>
<rect x="112" y="40" width="7" height="7" rx="1.5" fill="#9fe8ff" fill-opacity="0.85"/>
<rect x="112" y="48" width="7" height="7" rx="1.5" fill="#9fe8ff" fill-opacity="0.85"/>
<rect x="112" y="64" width="7" height="7" rx="1.5" fill="#9fe8ff" fill-opacity="0.85"/>
<rect x="112" y="80" width="7" height="7" rx="1.5" fill="#9fe8ff" fill-opacity="0.85"/>
<rect x="112" y="96" width="7" height="7" rx="1.5" fill="#9fe8ff" fill-opacity="0.85"/>
<rect x="112" y="104" width="7" height="7" rx="1.5" fill="#9fe8ff" fill-opacity="0.85"/>
<rect x="112" y="120" width="7" height="7" rx="1.5" fill="#9fe8ff" fill-opacity="0.85"/>
<rect x="112" y="128" width="7" height="7" rx="1.5" fill="#9fe8ff" fill-opacity="0.85"/>
<rect x="112" y="168" width="7" height="7" rx="1.5" fill="#9fe8ff" fill-opacity="0.85"/>
<rect x="112" y="176" width="7" height="7" rx="1.5" fill="#9fe8ff" fill-opacity="0.85"/>
<rect x="120" y="96" width="7" height="7" rx="1.5" fill="#9fe8ff" fill-opacity="0.85"/>
<rect x="120" y="112" width="7" height="7" rx="1.5" fill="#9fe8ff" fill-opacity="0.85"/>
<rect x="120" y="128" width="7" height="7" rx="1.5" fill="#9fe8ff" fill-opacity="0.85"/>
<rect x="120" y="136" width="7" height="7" rx="1.5" fill="#9fe8ff" fill-opacity="0.85"/>
<rect x="120" y="144" width="7" height="7" rx="1.5" fill="#9fe8ff" fill-opacity="0.85"/>
<rect x="120" y="160" width="7" height="7" rx="1.5" fill="#9fe8ff" fill-opacity="0.85"/>
<rect x="120" y="176" width="7" height="7" rx="1.5" fill="#9fe8ff" fill-opacity="0.85"/>
<rect x="128" y="16" width="7" height="7" rx="1.5" fill="#9fe8ff" fill-opacity="0.85"/>
<rect x="128" y="24" width="7" height="7" rx="1.5" fill="#9fe8ff" fill-opacity="0.85"/>
<rect x="128" y="32" width="7" height="7" rx="1.5" fill="#9fe8ff" fill-opacity="0.85"/>
<rect x="128" y="40" width="7" height="7" rx="1.5" fill="#9fe8ff" fill-opacity="0.85"/>
<rect x="128" y="48" width="7" height="7" rx="1.5" fill="#9fe8ff" fill-opacity="0.85"/>
<rect x="128" y="56" width="7" height="7" rx="1.5" fill="#9fe8ff" fill-opacity="0.85"/>
<rect x="128" y="64" width="7" height="7" rx="1.5" fill="#9fe8ff" fill-opacity="0.85"/>
<rect x="128" y="80" width="7" height="7" rx="1.5" fill="#9fe8ff" fill-opacity="0.85"/>
<rect x="128" y="88" width="7" height="7" rx="1.5" fill="#9fe8ff" fill-opacity="0.85"/>
<rect x="128" y="96" width="7" height="7" rx="1.5" fill="#9fe8ff" fill-opacity="0.85"/>
<rect x="128" y="112" width="7" height="7" rx="1.5" fill="#9fe8ff" fill-opacity="0.85"/>
<rect x="128" y="120" width="7" height="7" rx="1.5" fill="#9fe8ff" fill-opacity="0.85"/>
<rect x="128" y="128" width="7" height="7" rx="1.5" fill="#9fe8ff" fill-opacity="0.85"/>
<rect x="128" y="144" width="7" height="7" rx="1.5" fill="#9fe8ff" fill-opacity="0.85"/>
<rect x="128" y="160" width="7" height="7" rx="1.5" fill="#9fe8ff" fill-opacity="0.85"/>
<rect x="128" y="176" width="7" height="7" rx="1.5" fill="#9fe8ff" fill-opacity="0.85"/>
<rect x="136" y="16" width="7" height="7" rx="1.5" fill="#9fe8ff" fill-opacity="0.85"/>
<rect x="136" y="64" width="7" height="7" rx="1.5" fill="#9fe8ff" fill-opacity="0.85"/>
<rect x="136" y="88" width="7" height="7" rx="1.5" fill="#9fe8ff" fill-opacity="0.85"/>
<rect x="136" y="112" width="7" height="7" rx="1.5" fill="#9fe8ff" fill-opacity="0.85"/>
<rect x="136" y="120" width="7" height="7" rx="1.5" fill="#9fe8ff" fill-opacity="0.85"/>
<rect x="136" y="136" width="7" height="7" rx="1.5" fill="#9fe8ff" fill-opacity="0.85"/>
<rect x="136" y="144" width="7" height="7" rx="1.5" fill="#9fe8ff" fill-opacity="0.85"/>
<rect x="136" y="160" width="7" height="7" rx="1.5" fill="#9fe8ff" fill-opacity="0.85"/>
<rect x="144" y="16" width="7" height="7" rx="1.5" fill="#9fe8ff" fill-opacity="0.85"/>
<rect x="144" y="32" width="7" height="7" rx="1.5" fill="#9fe8ff" fill-opacity="0.85"/>
<rect x="144" y="40" width="7" height="7" rx="1.5" fill="#9fe8ff" fill-opacity="0.85"/>
<rect x="144" y="48" width="7" height="7" rx="1.5" fill="#9fe8ff" fill-opacity="0.85"/>
<rect x="144" y="64" width="7" height="7" rx="1.5" fill="#9fe8ff" fill-opacity="0.85"/>
<rect x="144" y="80" width="7" height="7" rx="1.5" fill="#9fe8ff" fill-opacity="0.85"/>
<rect x="144" y="112" width="7" height="7" rx="1.5" fill="#9fe8ff" fill-opacity="0.85"/>
<rect x="144" y="136" width="7" height="7" rx="1.5" fill="#9fe8ff" fill-opacity="0.85"/>
<rect x="144" y="144" width="7" height="7" rx="1.5" fill="#9fe8ff" fill-opacity="0.85"/>
<rect x="144" y="176" width="7" height="7" rx="1.5" fill="#9fe8ff" fill-opacity="0.85"/>
<rect x="152" y="16" width="7" height="7" rx="1.5" fill="#9fe8ff" fill-opacity="0.85"/>
<rect x="152" y="32" width="7" height="7" rx="1.5" fill="#9fe8ff" fill-opacity="0.85"/>
<rect x="152" y="40" width="7" height="7" rx="1.5" fill="#9fe8ff" fill-opacity="0.85"/>
<rect x="152" y="48" width="7" height="7" rx="1.5" fill="#9fe8ff" fill-opacity="0.85"/>
<rect x="152" y="64" width="7" height="7" rx="1.5" fill="#9fe8ff" fill-opacity="0.85"/>
<rect x="152" y="88" width="7" height="7" rx="1.5" fill="#9fe8ff" fill-opacity="0.85"/>
<rect x="152" y="96" width="7" height="7" rx="1.5" fill="#9fe8ff" fill-opacity="0.85"/>
<rect x="152" y="104" width="7" height="7" rx="1.5" fill="#9fe8ff" fill-opacity="0.85"/>
<rect x="152" y="112" width="7" height="7" rx="1.5" fill="#9fe8ff" fill-opacity="0.85"/>
<rect x="152" y="136" width="7" height="7" rx="1.5" fill="#9fe8ff" fill-opacity="0.85"/>
<rect x="152" y="144" width="7" height="7" rx="1.5" fill="#9fe8ff" fill-opacity="0.85"/>
<rect x="152" y="152" width="7" height="7" rx="1.5" fill="#9fe8ff" fill-opacity="0.85"/>
<rect x="160" y="16" width="7" height="7" rx="1.5" fill="#9fe8ff" fill-opacity="0.85"/>
<rect x="160" y="32" width="7" height="7" rx="1.5" fill="#9fe8ff" fill-opacity="0.85"/>
<rect x="160" y="40" width="7" height="7" rx="1.5" fill="#9fe8ff" fill-opacity="0.85"/>
<rect x="160" y="48" width="7" height="7" rx="1.5" fill="#9fe8ff" fill-opacity="0.85"/>
<rect x="160" y="64" width="7" height="7" rx="1.5" fill="#9fe8ff" fill-opacity="0.85"/>
<rect x="160" y="96" width="7" height="7" rx="1.5" fill="#9fe8ff" fill-opacity="0.85"/>
<rect x="160" y="104" width="7" height="7" rx="1.5" fill="#9fe8ff" fill-opacity="0.85"/>
<rect x="160" y="120" width="7" height="7" rx="1.5" fill="#9fe8ff" fill-opacity="0.85"/>
<rect x="160" y="128" width="7" height="7" rx="1.5" fill="#9fe8ff" fill-opacity="0.85"/>
<rect x="160" y="136" width="7" height="7" rx="1.5" fill="#9fe8ff" fill-opacity="0.85"/>
<rect x="160" y="160" width="7" height="7" rx="1.5" fill="#9fe8ff" fill-opacity="0.85"/>
<rect x="168" y="16" width="7" height="7" rx="1.5" fill="#9fe8ff" fill-opacity="0.85"/>
<rect x="168" y="64" width="7" height="7" rx="1.5" fill="#9fe8ff" fill-opacity="0.85"/>
<rect x="168" y="88" width="7" height="7" rx="1.5" fill="#9fe8ff" fill-opacity="0.85"/>
<rect x="168" y="96" width="7" height="7" rx="1.5" fill="#9fe8ff" fill-opacity="0.85"/>
<rect x="168" y="104" width="7" height="7" rx="1.5" fill="#9fe8ff" fill-opacity="0.85"/>
<rect x="168" y="128" width="7" height="7" rx="1.5" fill="#9fe8ff" fill-opacity="0.85"/>
<rect x="168" y="136" width="7" height="7" rx="1.5" fill="#9fe8ff" fill-opacity="0.85"/>
<rect x="168" y="152" width="7" height="7" rx="1.5" fill="#9fe8ff" fill-opacity="0.85"/>
<rect x="176" y="16" width="7" height="7" rx="1.5" fill="#9fe8ff" fill-opacity="0.85"/>
<rect x="176" y="24" width="7" height="7" rx="1.5" fill="#9fe8ff" fill-opacity="0.85"/>
<rect x="176" y="32" width="7" height="7" rx="1.5" fill="#9fe8ff" fill-opacity="0.85"/>
<rect x="176" y="40" width="7" height="7" rx="1.5" fill="#9fe8ff" fill-opacity="0.85"/>
<rect x="176" y="48" width="7" height="7" rx="1.5" fill="#9fe8ff" fill-opacity="0.85"/>
<rect x="176" y="56" width="7" height="7" rx="1.5" fill="#9fe8ff" fill-opacity="0.85"/>
<rect x="176" y="64" width="7" height="7" rx="1.5" fill="#9fe8ff" fill-opacity="0.85"/>
<rect x="176" y="88" width="7" height="7" rx="1.5" fill="#9fe8ff" fill-opacity="0.85"/>
<rect x="176" y="96" width="7" height="7" rx="1.5" fill="#9fe8ff" fill-opacity="0.85"/>
<rect x="176" y="120" width="7" height="7" rx="1.5" fill="#9fe8ff" fill-opacity="0.85"/>
<rect x="176" y="168" width="7" height="7" rx="1.5" fill="#9fe8ff" fill-opacity="0.85"/>
</svg>